<?xml version="1.0" encoding="UTF-8" standalone="no"?>
<!-- Generator: Adobe Illustrator 13.0.0, SVG Export Plug-In . SVG Version: 6.00 Build 14948)  -->

<svg
   xmlns:dc="http://purl.org/dc/elements/1.1/"
   xmlns:cc="http://creativecommons.org/ns#"
   xmlns:rdf="http://www.w3.org/1999/02/22-rdf-syntax-ns#"
   xmlns:svg="http://www.w3.org/2000/svg"
   xmlns="http://www.w3.org/2000/svg"
   xmlns:xlink="http://www.w3.org/1999/xlink"
   xmlns:sodipodi="http://sodipodi.sourceforge.net/DTD/sodipodi-0.dtd"
   xmlns:inkscape="http://www.inkscape.org/namespaces/inkscape"
   version="1.1"
   id="Layer_1"
   x="0px"
   y="0px"
   width="480"
   height="320"
   viewBox="0 0 480 320"
   enable-background="new 0 0 500 500"
   xml:space="preserve"
   inkscape:version="0.91 r13725"
   sodipodi:docname="background.svg"><metadata
     id="metadata8156"><rdf:RDF><cc:Work
         rdf:about=""><dc:format>image/svg+xml</dc:format><dc:type
           rdf:resource="http://purl.org/dc/dcmitype/StillImage" /><dc:title /></cc:Work></rdf:RDF></metadata><defs
     id="defs8154"><linearGradient
       id="linearGradient3829"><stop
         style="stop-color:#0036ff;stop-opacity:1;"
         offset="0"
         id="stop3831" /><stop
         style="stop-color:#000000;stop-opacity:1;"
         offset="1"
         id="stop3833" /></linearGradient><linearGradient
       inkscape:collect="always"
       xlink:href="#linearGradient3829"
       id="linearGradient3835"
       x1="131.5"
       y1="222.5"
       x2="210.5"
       y2="276.5"
       gradientUnits="userSpaceOnUse" /><linearGradient
       gradientTransform="matrix(0.62827903,0,0,0.62827903,92.822952,22.225755)"
       id="SVGID_16_"
       gradientUnits="userSpaceOnUse"
       x1="234.2803"
       y1="358.45901"
       x2="239.1073"
       y2="491.66159"><stop
         offset="0"
         style="stop-color:#ECEFCB"
         id="stop182" /><stop
         offset="1"
         style="stop-color:#B7BA91"
         id="stop184" /></linearGradient><linearGradient
       id="SVGID_15_"
       gradientUnits="userSpaceOnUse"
       x1="209.4111"
       y1="493.68851"
       x2="245.3712"
       y2="206.0153"><stop
         offset="0"
         style="stop-color:#E5802A"
         id="stop165" /><stop
         offset="1"
         style="stop-color:#EBD300"
         id="stop167" /></linearGradient><radialGradient
       id="SVGID_14_"
       cx="234.89751"
       cy="141.2471"
       r="14.0725"
       gradientTransform="matrix(0.76656324,0.05937237,-0.05937237,0.76656324,73.19118,-25.293375)"
       gradientUnits="userSpaceOnUse"><stop
         offset="0.0121"
         style="stop-color:#FFFFFF"
         id="stop140" /><stop
         offset="1"
         style="stop-color:#C3C3C3"
         id="stop142" /></radialGradient><linearGradient
       id="SVGID_13_"
       gradientUnits="userSpaceOnUse"
       x1="247.0732"
       y1="160.957"
       x2="252.0761"
       y2="139.6413"
       gradientTransform="matrix(0.62758792,0.02946629,-0.02946629,0.62758792,101.82845,15.024044)"><stop
         offset="0"
         style="stop-color:#2E2B22"
         id="stop129" /><stop
         offset="1"
         style="stop-color:#5C636A"
         id="stop131" /></linearGradient><linearGradient
       id="SVGID_12_"
       gradientUnits="userSpaceOnUse"
       x1="245.5479"
       y1="162.3564"
       x2="248.2691"
       y2="134.64571"
       gradientTransform="matrix(0.62639419,0.04850314,-0.04850314,0.62639419,104.75711,10.760354)"><stop
         offset="0"
         style="stop-color:#E5802A"
         id="stop120" /><stop
         offset="1"
         style="stop-color:#EBD300"
         id="stop122" /></linearGradient><radialGradient
       id="SVGID_11_"
       cx="270.31451"
       cy="149.873"
       r="15.2679"
       gradientTransform="matrix(1.2151,0.1452,-0.1452,1.2151,-21.514,-87.9268)"
       gradientUnits="userSpaceOnUse"><stop
         offset="0.0121"
         style="stop-color:#FFFFFF"
         id="stop107" /><stop
         offset="1"
         style="stop-color:#C3C3C3"
         id="stop109" /></radialGradient><linearGradient
       id="SVGID_10_"
       gradientUnits="userSpaceOnUse"
       x1="243.02251"
       y1="175.77541"
       x2="245.8082"
       y2="150.0024"
       gradientTransform="matrix(0.62639419,0.04850314,-0.04850314,0.62639419,104.75711,10.760354)"><stop
         offset="0"
         style="stop-color:#FFFFFF"
         id="stop98" /><stop
         offset="1"
         style="stop-color:#C3C3C3"
         id="stop100" /></linearGradient><linearGradient
       id="SVGID_9_"
       gradientUnits="userSpaceOnUse"
       x1="236.62601"
       y1="230.0264"
       x2="242.2308"
       y2="166.0127"
       gradientTransform="matrix(0.62639419,0.04850314,-0.04850314,0.62639419,104.75711,10.760354)"><stop
         offset="0"
         style="stop-color:#E5802A"
         id="stop87" /><stop
         offset="1"
         style="stop-color:#EBD300"
         id="stop89" /></linearGradient><linearGradient
       id="SVGID_8_"
       gradientUnits="userSpaceOnUse"
       x1="240.2197"
       y1="276.25201"
       x2="240.2197"
       y2="127.5594"
       gradientTransform="matrix(0.62639419,0.04850314,-0.04850314,0.62639419,104.75711,10.760354)"><stop
         offset="0"
         style="stop-color:#E5802A"
         id="stop80" /><stop
         offset="1"
         style="stop-color:#EBD300"
         id="stop82" /></linearGradient><linearGradient
       gradientTransform="matrix(0.62827903,0,0,0.62827903,92.822952,22.225755)"
       id="SVGID_7_"
       gradientUnits="userSpaceOnUse"
       x1="232.99899"
       y1="422.90039"
       x2="232.99899"
       y2="127.0979"><stop
         offset="0"
         style="stop-color:#E5802A"
         id="stop63" /><stop
         offset="1"
         style="stop-color:#EBD300"
         id="stop65" /></linearGradient><linearGradient
       id="SVGID_6_"
       gradientUnits="userSpaceOnUse"
       x1="404.5"
       y1="265.7305"
       x2="401.81091"
       y2="226.11189"
       gradientTransform="matrix(-0.6077343,-0.15933156,-0.15933156,0.6077343,438.78863,67.038196)"><stop
         offset="0"
         style="stop-color:#E5802A"
         id="stop54" /><stop
         offset="1"
         style="stop-color:#EBD300"
         id="stop56" /></linearGradient><linearGradient
       id="SVGID_5_"
       gradientUnits="userSpaceOnUse"
       x1="374.94531"
       y1="280.082"
       x2="368.97961"
       y2="192.1873"
       gradientTransform="matrix(-0.6077343,-0.15933156,-0.15933156,0.6077343,438.78863,67.038196)"><stop
         offset="0"
         style="stop-color:#E5802A"
         id="stop47" /><stop
         offset="1"
         style="stop-color:#EBD300"
         id="stop49" /></linearGradient><linearGradient
       id="SVGID_4_"
       gradientUnits="userSpaceOnUse"
       x1="391.02051"
       y1="266.43259"
       x2="388.33151"
       y2="226.8148"
       gradientTransform="matrix(0.62639419,0.04850314,-0.04850314,0.62639419,104.75711,10.760354)"><stop
         offset="0"
         style="stop-color:#E5802A"
         id="stop38" /><stop
         offset="1"
         style="stop-color:#EBD300"
         id="stop40" /></linearGradient><linearGradient
       id="SVGID_3_"
       gradientUnits="userSpaceOnUse"
       x1="361.46481"
       y1="280.78519"
       x2="355.49921"
       y2="192.8913"
       gradientTransform="matrix(0.62639419,0.04850314,-0.04850314,0.62639419,104.75711,10.760354)"><stop
         offset="0"
         style="stop-color:#E5802A"
         id="stop31" /><stop
         offset="1"
         style="stop-color:#EBD300"
         id="stop33" /></linearGradient><linearGradient
       id="SVGID_2_"
       gradientUnits="userSpaceOnUse"
       x1="102.3818"
       y1="438.63959"
       x2="102.3818"
       y2="377.16479"
       gradientTransform="matrix(-0.54641427,0.3100557,0.3100557,0.54641427,258.73794,16.304037)"><stop
         offset="0"
         style="stop-color:#E5802A"
         id="stop24" /><stop
         offset="1"
         style="stop-color:#EBD300"
         id="stop26" /></linearGradient><linearGradient
       id="SVGID_1_"
       gradientUnits="userSpaceOnUse"
       x1="130.4951"
       y1="457.78421"
       x2="130.4951"
       y2="396.31049"><stop
         offset="0"
         style="stop-color:#E5802A"
         id="stop17" /><stop
         offset="1"
         style="stop-color:#EBD300"
         id="stop19" /></linearGradient><linearGradient
       gradientTransform="matrix(0.62827903,0,0,0.62827903,92.822952,22.225755)"
       y2="396.31049"
       x2="130.4951"
       y1="457.78421"
       x1="130.4951"
       gradientUnits="userSpaceOnUse"
       id="linearGradient4039"
       xlink:href="#SVGID_1_"
       inkscape:collect="always" /></defs><sodipodi:namedview
     pagecolor="#ffffff"
     bordercolor="#666666"
     borderopacity="1"
     objecttolerance="10"
     gridtolerance="10"
     guidetolerance="10"
     inkscape:pageopacity="0"
     inkscape:pageshadow="2"
     inkscape:window-width="1920"
     inkscape:window-height="1080"
     id="namedview8152"
     showgrid="false"
     inkscape:zoom="2.8284271"
     inkscape:cx="123.06496"
     inkscape:cy="211.90556"
     inkscape:window-x="0"
     inkscape:window-y="0"
     inkscape:window-maximized="1"
     inkscape:current-layer="Layer_1"
     borderlayer="true"
     inkscape:showpageshadow="false" /><g
     id="max_width__x2F__height"
     display="none"
     style="display:none"
     transform="translate(0,-180)"><path
       display="inline"
       d="M 499.001,1 V 499 H 1 V 1 h 498.001 m 1,-1 H 0 V 500 H 500.001 V 0 l 0,0 z"
       id="path8137"
       inkscape:connector-curvature="0"
       style="display:inline" /></g><path
     style="fill:#1a1a1a;fill-opacity:1;stroke:none"
     d="M 0,0 480,0 480,320 0,320 z"
     id="rect3292"
     inkscape:connector-curvature="0" /><g
     style="font-size:25.1705761px;font-style:normal;font-variant:normal;font-weight:normal;font-stretch:normal;text-align:start;line-height:125%;letter-spacing:0px;word-spacing:0px;text-anchor:start;fill:#ffffff;fill-opacity:1;stroke:none;font-family:Hemi Head 426;-inkscape-font-specification:Hemi Head 426"
     id="text3603"
     transform="translate(4,-4)"><path
       d="m 22.052509,69.143731 c -0.117345,0.572003 -0.264011,1.034002 -0.44,1.386 -0.176011,0.352001 -0.403344,0.623334 -0.682,0.814 -0.278677,0.190667 -0.630677,0.322667 -1.056,0.396 -0.410676,0.05867 -0.924009,0.088 -1.54,0.088 l -3.3,0 0.484,-2.266 2.266,0 c 0.351992,3e-6 0.630659,-0.01466 0.836,-0.044 0.205325,-0.044 0.359325,-0.109997 0.462,-0.198 0.117324,-0.102664 0.205324,-0.234663 0.264,-0.396 0.05866,-0.175996 0.117324,-0.40333 0.176,-0.682 l 0.506,-2.31 c 0.05866,-0.293327 0.08799,-0.527993 0.088,-0.704 -10e-6,-0.249326 -0.08801,-0.410659 -0.264,-0.484 -0.161343,-0.08799 -0.498676,-0.131992 -1.012,-0.132 l -3.234,0 -2.2,10.384 -2.706,0 2.684,-12.672 6.974,0 c 1.011989,10e-6 1.715988,0.102677 2.112,0.308 0.395987,0.205343 0.593987,0.601342 0.594,1.188 -1.3e-5,0.337341 -0.05135,0.740674 -0.154,1.21 l -0.858,4.114"
       style="font-size:22px;fill:#ffffff"
       id="path3699"
       inkscape:connector-curvature="0" /><path
       d="m 33.170071,71.849731 -6.996,0 c -0.513337,0 -0.946003,-0.022 -1.298,-0.066 -0.337335,-0.044 -0.616002,-0.117333 -0.836,-0.22 -0.205335,-0.117332 -0.359335,-0.271332 -0.462,-0.462 -0.088,-0.190665 -0.132001,-0.439998 -0.132,-0.748 -1e-6,-0.337331 0.05133,-0.733331 0.154,-1.188 l 0.11,-0.528 c 0.131999,-0.571996 0.278665,-1.033995 0.44,-1.386 0.161331,-0.351995 0.381331,-0.623328 0.66,-0.814 0.278664,-0.190661 0.62333,-0.315327 1.034,-0.374 0.42533,-0.07333 0.953329,-0.109994 1.584,-0.11 l 3.146,0 -0.484,2.288 -2.926,0 c -0.264004,4e-6 -0.476671,0.088 -0.638,0.264 -0.161337,0.161337 -0.242004,0.34467 -0.242,0.55 -4e-6,0.337336 0.197996,0.506003 0.594,0.506 l 4.07,0 0.77,-3.608 c 0.07332,-0.36666 0.109991,-0.60866 0.11,-0.726 -9e-6,-0.249326 -0.08801,-0.410659 -0.264,-0.484 -0.161342,-0.07333 -0.498675,-0.109992 -1.012,-0.11 l -5.544,0 0.484,-2.288 6.556,0 c 0.513323,10e-6 0.938656,0.02201 1.276,0.066 0.351989,0.04401 0.630655,0.124676 0.836,0.242 0.219988,0.102676 0.373988,0.249343 0.462,0.44 0.102654,0.190676 0.153988,0.440009 0.154,0.748 -1.2e-5,0.337341 -0.05135,0.733341 -0.154,1.188 l -1.452,6.82"
       style="font-size:22px;fill:#ffffff"
       id="path3701"
       inkscape:connector-curvature="0" /><path
       d="m 45.426478,71.849731 -2.684,0 1.254,-5.896 c 0.07332,-0.36666 0.109989,-0.60866 0.11,-0.726 -1.1e-5,-0.249326 -0.08801,-0.410659 -0.264,-0.484 -0.161344,-0.07333 -0.498677,-0.109992 -1.012,-0.11 l -2.156,0 c -0.33734,8e-6 -0.608673,0.01467 -0.814,0.044 -0.190673,0.02934 -0.344673,0.09534 -0.462,0.198 -0.117339,0.08801 -0.212672,0.220007 -0.286,0.396 -0.05867,0.176007 -0.117339,0.40334 -0.176,0.682 l -1.254,5.896 -2.706,0 2.024,-9.504 2.706,0 -0.242,1.188 c 0.49866,-0.79199 1.173326,-1.18799 2.024,-1.188 l 2.838,0 c 1.011988,10e-6 1.715987,0.102677 2.112,0.308 0.395987,0.190676 0.593986,0.586676 0.594,1.188 -1.4e-5,0.337341 -0.05135,0.733341 -0.154,1.188 l -1.452,6.82"
       style="font-size:22px;fill:#ffffff"
       id="path3703"
       inkscape:connector-curvature="0" /></g><g
     style="font-size:22px;font-style:normal;font-variant:normal;font-weight:normal;font-stretch:normal;text-align:start;line-height:125%;letter-spacing:0px;word-spacing:0px;text-anchor:start;fill:#ffffff;fill-opacity:1;stroke:none;font-family:Hemi Head 426;-inkscape-font-specification:Hemi Head 426"
     id="text3607"
     transform="translate(8,-4)"><path
       d="m 84.860387,71.41626 -6.952,0 c -0.513337,0 -0.946003,-0.022 -1.298,-0.066 -0.337336,-0.044 -0.616002,-0.117333 -0.836,-0.22 -0.205335,-0.117333 -0.359335,-0.271333 -0.462,-0.462 -0.088,-0.190666 -0.132001,-0.439999 -0.132,-0.748 -10e-7,-0.337332 0.05133,-0.733331 0.154,-1.188 l 0.88,-4.136 c 0.131998,-0.571993 0.278664,-1.033992 0.44,-1.386 0.175997,-0.351992 0.395997,-0.623325 0.66,-0.814 0.278663,-0.190658 0.623329,-0.315324 1.034,-0.374 0.425329,-0.07332 0.945995,-0.109991 1.562,-0.11 l 3.322,0 -0.484,2.288 -2.288,0 c -0.308006,7e-6 -0.564672,0.01467 -0.77,0.044 -0.190672,0.01467 -0.352005,0.06601 -0.484,0.154 -0.117338,0.08801 -0.212672,0.220007 -0.286,0.396 -0.07334,0.176006 -0.139338,0.418006 -0.198,0.726 l -0.484,2.288 c -0.07334,0.36667 -0.110004,0.608669 -0.11,0.726 -4e-6,0.249336 0.08066,0.410669 0.242,0.484 0.175996,0.07334 0.520662,0.11 1.034,0.11 l 3.256,0 2.2,-10.384 2.706,0 -2.706,12.672"
       id="path3688"
       inkscape:connector-curvature="0"
       style="fill:#ffffff"
       sodipodi:nodetypes="cscccsccccccccccccccccscccc" /><path
       d="m 95.206918,64.20026 -3.168,0 c -0.337339,7e-6 -0.608672,0.01467 -0.814,0.044 -0.190672,0.02934 -0.344672,0.09534 -0.462,0.198 -0.117338,0.08801 -0.212671,0.220007 -0.286,0.396 -0.05867,0.176006 -0.117338,0.403339 -0.176,0.682 l -1.254,5.896 -2.706,0 2.024,-9.504 2.706,0 -0.242,1.188 c 0.498661,-0.791991 1.173327,-1.187991 2.024,-1.188 l 2.838,0 -0.484,2.288"
       id="path3690"
       inkscape:connector-curvature="0"
       style="fill:#ffffff"
       sodipodi:nodetypes="cccccccccccccc" /><path
       d="m 105.67067,71.39426 -2.706,0 0.242,-1.166 c -0.51334,0.777334 -1.18801,1.166 -2.024,1.166 l -2.838002,0 c -0.528003,0 -0.968003,-0.022 -1.32,-0.066 -0.352002,-0.044 -0.630668,-0.124667 -0.836,-0.242 -0.205335,-0.117333 -0.352001,-0.264 -0.44,-0.44 -0.088,-0.190666 -0.132001,-0.432666 -0.132,-0.726 -10e-7,-0.161332 0.01467,-0.337332 0.044,-0.528 0.02933,-0.205331 0.07333,-0.432664 0.132,-0.682 l 1.43,-6.82 2.684,0 -1.254,5.918 c -0.05867,0.293336 -0.088,0.528003 -0.088,0.704 -4e-6,0.249336 0.08066,0.418002 0.242,0.506 0.175996,0.07334 0.520662,0.11 1.034,0.11 l 2.156002,0 c 0.35199,0 0.62332,-0.01466 0.814,-0.044 0.20532,-0.044 0.36666,-0.109998 0.484,-0.198 0.11732,-0.102664 0.20532,-0.234664 0.264,-0.396 0.0587,-0.175997 0.11732,-0.40333 0.176,-0.682 l 1.254,-5.918 2.684,0 -2.002,9.504"
       id="path3692"
       inkscape:connector-curvature="0"
       style="fill:#ffffff"
       sodipodi:nodetypes="cccsssscscccccccssccccccc" /><path
       d="m 123.63264,71.41626 -2.684,0 1.254,-5.896 c 0.0587,-0.293327 0.088,-0.535327 0.088,-0.726 -2e-5,-0.249327 -0.088,-0.41066 -0.264,-0.484 -0.16135,-0.07333 -0.49868,-0.109993 -1.012,-0.11 l -1.056,0 c -0.33735,7e-6 -0.60868,0.01467 -0.814,0.044 -0.19068,0.02934 -0.34468,0.09534 -0.462,0.198 -0.11735,0.08801 -0.21268,0.220007 -0.286,0.396 -0.0587,0.176006 -0.11735,0.403339 -0.176,0.682 l -1.254,5.896 -2.706,0 1.386,-6.622 c -1e-5,-0.249327 -0.088,-0.41066 -0.264,-0.484 -0.16134,-0.07333 -0.49868,-0.109993 -1.012,-0.11 l -1.056,0 c -0.33734,7e-6 -0.60868,0.01467 -0.814,0.044 -0.19068,0.02934 -0.34468,0.09534 -0.462,0.198 -0.11734,0.08801 -0.21267,0.220007 -0.286,0.396 -0.0587,0.176006 -0.11734,0.403339 -0.176,0.682 l -1.254,5.896 -2.706,0 2.024,-9.504 2.706,0 -0.242,1.188 c 0.49866,-0.791991 1.17332,-1.187991 2.024,-1.188 l 1.738,0 c 0.96799,0 1.63532,0.08068 2.002,0.242 0.38132,0.161342 0.60865,0.454675 0.682,0.88 0.14665,-0.337325 0.43265,-0.608658 0.858,-0.814 0.42532,-0.205324 0.87998,-0.307991 1.364,-0.308 l 1.738,0 c 1.01198,0 1.71598,0.102676 2.112,0.308 0.41065,0.190675 0.61598,0.586675 0.616,1.188 -2e-5,0.278674 -0.0587,0.674674 -0.176,1.188 l -1.43,6.82"
       id="path3694"
       inkscape:connector-curvature="0"
       style="fill:#ffffff"
       sodipodi:nodetypes="cccccccccccccccccccccccccccsccscscccc" /><path
       d="m 136.44661,68.73226 c -0.13202,0.572002 -0.27868,1.034001 -0.44,1.386 -0.16135,0.337334 -0.38135,0.608667 -0.66,0.814 -0.26401,0.190667 -0.60868,0.322667 -1.034,0.396 -0.41068,0.05867 -0.93135,0.088 -1.562,0.088 l -7.326,0 0.484,-2.288 6.996,0 c 0.32265,0 0.57932,-0.07333 0.77,-0.22 0.20532,-0.161331 0.30799,-0.337331 0.308,-0.528 -1e-5,-0.366663 -0.26401,-0.55 -0.792,-0.55 l -4.004,0 c -0.83601,0 -1.47401,-0.168663 -1.914,-0.506 -0.42534,-0.337329 -0.63801,-0.791995 -0.638,-1.364 -10e-6,-0.07333 -10e-6,-0.139328 0,-0.198 0.0147,-0.07333 0.0293,-0.146661 0.044,-0.22 l 0.198,-0.946 c 0.13199,-0.571993 0.27866,-1.033992 0.44,-1.386 0.17599,-0.366658 0.39599,-0.645325 0.66,-0.836 0.27866,-0.190658 0.62333,-0.315324 1.034,-0.374 0.42532,-0.07332 0.94599,-0.109991 1.562,-0.11 l 7.326,0 -0.484,2.288 -6.842,0 c -0.33734,7e-6 -0.61601,0.08801 -0.836,0.264 -0.20534,0.16134 -0.30801,0.344673 -0.308,0.55 -1e-5,0.366672 0.28599,0.550006 0.858,0.55 l 4.224,0 c 1.40798,0 2.11198,0.660005 2.112,1.98 -2e-5,0.249337 -0.022,0.491337 -0.066,0.726 l -0.11,0.484"
       id="path3696"
       inkscape:connector-curvature="0"
       style="fill:#ffffff"
       sodipodi:nodetypes="ccccsccsccsscccccccccccccccsccc" /></g><g
     style="font-size:21.89388275px;font-style:normal;font-variant:normal;font-weight:normal;font-stretch:normal;text-align:start;line-height:125%;letter-spacing:0px;word-spacing:0px;text-anchor:start;fill:#ffffff;fill-opacity:1;stroke:none;font-family:Hemi Head 426;-inkscape-font-specification:Hemi Head 426"
     id="text3611"
     transform="translate(18,-4)"><path
       d="m 162.5892,71.41626 -2.684,0 1.254,-5.896 c 0.0733,-0.366661 0.10999,-0.60866 0.11,-0.726 -1e-5,-0.249327 -0.088,-0.41066 -0.264,-0.484 -0.16135,-0.07333 -0.49868,-0.109993 -1.012,-0.11 l -2.156,0 c -0.33734,7e-6 -0.60868,0.01467 -0.814,0.044 -0.19068,0.02934 -0.34467,0.09534 -0.462,0.198 -0.11734,0.08801 -0.21267,0.220007 -0.286,0.396 -0.0587,0.176006 -0.11734,0.403339 -0.176,0.682 l -1.254,5.896 -2.706,0 2.024,-9.504 2.706,0 -0.242,1.188 c 0.49866,-0.791991 1.17332,-1.187991 2.024,-1.188 l 2.838,0 c 1.01199,0 1.71599,0.102676 2.112,0.308 0.39598,0.190675 0.59398,0.586675 0.594,1.188 -2e-5,0.337341 -0.0514,0.73334 -0.154,1.188 l -1.452,6.82"
       style="font-size:22px;fill:#ffffff"
       id="path3677"
       inkscape:connector-curvature="0"
       sodipodi:nodetypes="cccccccccccccccccscccc" /><path
       d="m 175.42826,68.73226 c -0.11735,0.572002 -0.26401,1.034001 -0.44,1.386 -0.16134,0.337334 -0.38134,0.608667 -0.66,0.814 -0.26401,0.190667 -0.60868,0.322667 -1.034,0.396 -0.42534,0.05867 -0.95334,0.088 -1.584,0.088 l -4.18,0 c -1.012,0 -1.716,-0.09533 -2.112,-0.286 -0.396,-0.205333 -0.594,-0.608666 -0.594,-1.21 0,-0.337332 0.0513,-0.733331 0.154,-1.188 l 0.88,-4.136 c 0.132,-0.571993 0.27866,-1.033992 0.44,-1.386 0.176,-0.351992 0.396,-0.623325 0.66,-0.814 0.27866,-0.190658 0.62333,-0.315324 1.034,-0.374 0.42533,-0.07332 0.94599,-0.109991 1.562,-0.11 l 4.18,0 c 0.54266,9e-6 0.98999,0.02934 1.342,0.088 0.35199,0.04401 0.63065,0.124676 0.836,0.242 0.20532,0.102676 0.34465,0.256675 0.418,0.462 0.088,0.190675 0.13199,0.425341 0.132,0.704 -10e-6,0.337341 -0.0513,0.73334 -0.154,1.188 l -0.88,4.136 m -2.486,-0.924 0.484,-2.288 c 0.0733,-0.366661 0.10999,-0.60866 0.11,-0.726 -1e-5,-0.249327 -0.088,-0.41066 -0.264,-0.484 -0.16134,-0.07333 -0.49868,-0.109993 -1.012,-0.11 l -2.156,0 c -0.30801,7e-6 -0.56467,0.01467 -0.77,0.044 -0.19067,0.01467 -0.35201,0.06601 -0.484,0.154 -0.11734,0.08801 -0.21267,0.220007 -0.286,0.396 -0.0733,0.176006 -0.13934,0.418006 -0.198,0.726 l -0.484,2.288 c -0.0733,0.36667 -0.11,0.608669 -0.11,0.726 0,0.249336 0.0807,0.410669 0.242,0.484 0.17599,0.07334 0.52066,0.11 1.034,0.11 l 2.156,0 c 0.33732,0 0.60132,-0.01466 0.792,-0.044 0.20532,-0.02933 0.36666,-0.088 0.484,-0.176 0.11732,-0.102664 0.20532,-0.234664 0.264,-0.396 0.0733,-0.175997 0.13932,-0.410664 0.198,-0.704"
       style="font-size:22px;fill:#ffffff"
       id="path3679"
       inkscape:connector-curvature="0"
       sodipodi:nodetypes="ccccsscsccccccccccccccccccccccccscsscccc" /><path
       d="m 181.80345,71.41626 -2.178,0 c -1.01201,0 -1.71601,-0.09533 -2.112,-0.286 -0.396,-0.205333 -0.594,-0.608666 -0.594,-1.21 0,-0.337332 0.0513,-0.733331 0.154,-1.188 l 2.112,-9.966 2.706,0 -0.682,3.146 2.618,0 -0.506,2.288 -2.574,0 -0.77,3.608 c -0.0733,0.36667 -0.11001,0.608669 -0.11,0.726 -1e-5,0.249336 0.0807,0.410669 0.242,0.484 0.17599,0.07334 1.54734,0.11 1.034,0.11 l 1.144,0 -0.484,2.288"
       style="font-size:22px;fill:#ffffff"
       id="path3681"
       inkscape:connector-curvature="0"
       sodipodi:nodetypes="cscsccccccccccscc" /><path
       d="m 194.41735,67.80826 -6.292,0 0.484,-2.288 3.674,0 c 0.088,-0.410661 0.13199,-0.637994 0.132,-0.682 -1e-5,-0.439993 -0.35201,-0.66 -1.056,-0.66 l -2.156,0 c -0.29334,7e-6 -0.54267,0.01467 -0.748,0.044 -0.19067,0.02934 -0.352,0.09534 -0.484,0.198 -0.11734,0.08801 -0.22,0.220007 -0.308,0.396 -0.0733,0.176006 -0.13933,0.410673 -0.198,0.704 l -0.484,2.288 c -0.0587,0.293336 -0.088,0.528003 -0.088,0.704 0,0.249336 0.0807,0.418002 0.242,0.506 0.176,0.07334 0.52067,0.11 1.034,0.11 l 5.544,0 -0.484,2.266 -6.578,0 c -0.528,0 -0.968,-0.022 -1.32,-0.066 -0.352,-0.044 -0.63067,-0.124667 -0.836,-0.242 -0.20533,-0.117333 -0.352,-0.264 -0.44,-0.44 -0.088,-0.190666 -0.132,-0.432666 -0.132,-0.726 0,-0.161332 0.0147,-0.337332 0.044,-0.528 0.0293,-0.205331 0.0733,-0.432664 0.132,-0.682 l 0.858,-4.114 c 0.20533,-0.967992 0.594,-1.657325 1.166,-2.068 0.58667,-0.425324 1.43733,-0.638 2.552,-0.638 l 3.872,0 c 1.01199,0 1.71599,0.102676 2.112,0.308 0.39599,0.205342 0.59399,0.601342 0.594,1.188 -1e-5,0.337341 -0.0513,0.740674 -0.154,1.21 l -0.682,3.212"
       style="font-size:22px;fill:#ffffff"
       id="path3683"
       inkscape:connector-curvature="0"
       sodipodi:nodetypes="cccccsccccccscsccssscsccccsscccc" /><path
       d="m 206.19182,68.73226 c -0.13201,0.572002 -0.27868,1.034001 -0.44,1.386 -0.16134,0.337334 -0.38134,0.608667 -0.66,0.814 -0.26401,0.190667 -0.60867,0.322667 -1.034,0.396 -0.41067,0.05867 -0.93134,0.088 -1.562,0.088 l -7.326,0 0.484,-2.288 6.996,0 c 0.32266,0 0.57933,-0.07333 0.77,-0.22 0.20533,-0.161331 0.30799,-0.337331 0.308,-0.528 -1e-5,-0.366663 -0.26401,-0.55 -0.792,-0.55 l -4.004,0 c -0.836,0 -1.474,-0.168663 -1.914,-0.506 -0.42533,-0.337329 -0.638,-0.791995 -0.638,-1.364 0,-0.07333 0,-0.139328 0,-0.198 0.0147,-0.07333 0.0293,-0.146661 0.044,-0.22 l 0.198,-0.946 c 0.132,-0.571993 0.27867,-1.033992 0.44,-1.386 0.176,-0.366658 0.396,-0.645325 0.66,-0.836 0.27867,-0.190658 0.62333,-0.315324 1.034,-0.374 0.42533,-0.07332 0.946,-0.109991 1.562,-0.11 l 7.326,0 -0.484,2.288 -6.842,0 c -0.33734,7e-6 -0.616,0.08801 -0.836,0.264 -0.20534,0.16134 -0.308,0.344673 -0.308,0.55 0,0.366672 0.286,0.550006 0.858,0.55 l 4.224,0 c 1.40799,0 2.11199,0.660005 2.112,1.98 -1e-5,0.249337 -0.022,0.491337 -0.066,0.726 l -0.11,0.484"
       style="font-size:22px;fill:#ffffff"
       id="path3685"
       inkscape:connector-curvature="0"
       sodipodi:nodetypes="ccccsccsccsscscccccccccccscsccc" /></g><g
     style="font-size:21.89388275px;font-style:normal;font-variant:normal;font-weight:normal;font-stretch:normal;text-align:start;line-height:125%;letter-spacing:0px;word-spacing:0px;text-anchor:start;fill:#ffffff;fill-opacity:1;stroke:none;font-family:Hemi Head 426;-inkscape-font-specification:Hemi Head 426"
     id="text3619"
     transform="translate(78,-4)"><path
       d="m 243.3972,71.41626 -2.178,0 c -1.01201,0 -1.71601,-0.09533 -2.112,-0.286 -0.396,-0.205333 -0.594,-0.608666 -0.594,-1.21 0,-0.337332 0.0513,-0.733331 0.154,-1.188 l 2.112,-9.966 2.706,0 -0.682,3.146 2.618,0 -0.506,2.288 -2.574,0 -0.77,3.608 c -0.0733,0.36667 -0.11001,0.608669 -0.11,0.726 -1e-5,0.249336 0.0807,0.410669 0.242,0.484 0.17599,0.07334 0.52066,0.11 1.034,0.11 l 1.144,0 -0.484,2.288"
       style="font-size:22px;fill:#ffffff"
       id="path3656"
       inkscape:connector-curvature="0"
       sodipodi:nodetypes="cscsccccccccccscc" /><path
       d="m 256.1431,68.73226 c -0.11734,0.572002 -0.26401,1.034001 -0.44,1.386 -0.16134,0.337334 -0.38134,0.608667 -0.66,0.814 -0.26401,0.190667 -0.60867,0.322667 -1.034,0.396 -0.42534,0.05867 -0.95334,0.088 -1.584,0.088 l -4.18,0 c -1.012,0 -1.716,-0.09533 -2.112,-0.286 -0.396,-0.205333 -0.594,-0.608666 -0.594,-1.21 0,-0.337332 0.0513,-0.733331 0.154,-1.188 l 0.88,-4.136 c 0.132,-0.571993 0.27867,-1.033992 0.44,-1.386 0.176,-0.351992 0.396,-0.623325 0.66,-0.814 0.27867,-0.190658 0.62333,-0.315324 1.034,-0.374 0.42533,-0.07332 0.946,-0.109991 1.562,-0.11 l 4.18,0 c 0.54266,9e-6 0.98999,0.02934 1.342,0.088 0.35199,0.04401 0.63066,0.124676 0.836,0.242 0.20532,0.102676 0.34466,0.256675 0.418,0.462 0.088,0.190675 0.13199,0.425341 0.132,0.704 -10e-6,0.337341 -0.0513,0.73334 -0.154,1.188 l -0.88,4.136 m -2.486,-0.924 0.484,-2.288 c 0.0733,-0.366661 0.10999,-0.60866 0.11,-0.726 -1e-5,-0.249327 -0.088,-0.41066 -0.264,-0.484 -0.16134,-0.07333 -0.49867,-0.109993 -1.012,-0.11 l -2.156,0 c -0.308,7e-6 -0.56467,0.01467 -0.77,0.044 -0.19067,0.01467 -0.352,0.06601 -0.484,0.154 -0.11734,0.08801 -0.21267,0.220007 -0.286,0.396 -0.0733,0.176006 -0.13933,0.418006 -0.198,0.726 l -0.484,2.288 c -0.0733,0.36667 -0.11,0.608669 -0.11,0.726 0,0.249336 0.0807,0.410669 0.242,0.484 0.176,0.07334 0.52067,0.11 1.034,0.11 l 2.156,0 c 0.33733,0 0.60133,-0.01466 0.792,-0.044 0.20533,-0.02933 0.36666,-0.088 0.484,-0.176 0.11733,-0.102664 0.20533,-0.234664 0.264,-0.396 0.0733,-0.175997 0.13933,-0.410664 0.198,-0.704"
       style="font-size:22px;fill:#ffffff"
       id="path3658"
       inkscape:connector-curvature="0"
       sodipodi:nodetypes="ccccsscsccccccccccccccccccccccccscsscccc" /><path
       d="m 267.73229,71.39426 -2.706,0 0.242,-1.166 c -0.51334,0.777334 -1.18801,1.166 -2.024,1.166 l -2.838,0 c -0.528,0 -0.968,-0.022 -1.32,-0.066 -0.352,-0.044 -0.63067,-0.124667 -0.836,-0.242 -0.20533,-0.117333 -0.352,-0.264 -0.44,-0.44 -0.088,-0.190666 -0.132,-0.432666 -0.132,-0.726 0,-0.161332 0.0147,-0.337332 0.044,-0.528 0.0293,-0.205331 0.0733,-0.432664 0.132,-0.682 l 1.43,-6.82 2.684,0 -1.254,5.918 c -0.0587,0.293336 -0.088,0.528003 -0.088,0.704 0,0.249336 0.0807,0.418002 0.242,0.506 0.176,0.07334 0.52066,0.11 1.034,0.11 l 2.156,0 c 0.35199,0 0.62333,-0.01466 0.814,-0.044 0.20533,-0.044 0.36666,-0.109998 0.484,-0.198 0.11733,-0.102664 0.20533,-0.234664 0.264,-0.396 0.0587,-0.175997 0.11732,-0.40333 0.176,-0.682 l 1.254,-5.918 2.684,0 -2.002,9.504"
       style="font-size:22px;fill:#ffffff"
       id="path3660"
       inkscape:connector-curvature="0"
       sodipodi:nodetypes="cccsssscscccccscssccccccc" /><path
       d="m 278.30226,71.41626 -5.632,0 c -0.54267,0 -0.99,-0.022 -1.342,-0.066 -0.352,-0.05867 -0.63067,-0.139333 -0.836,-0.242 -0.20534,-0.117333 -0.352,-0.271333 -0.44,-0.462 -0.0733,-0.190666 -0.11,-0.432666 -0.11,-0.726 0,-0.337332 0.0513,-0.733331 0.154,-1.188 l 0.88,-4.136 c 0.132,-0.571993 0.27866,-1.033992 0.44,-1.386 0.176,-0.351992 0.40333,-0.623325 0.682,-0.814 0.29333,-0.190658 0.64533,-0.315324 1.056,-0.374 0.41066,-0.07332 0.92399,-0.109991 1.54,-0.11 l 5.632,0 -0.484,2.288 -4.62,0 c -0.33734,7e-6 -0.60867,0.01467 -0.814,0.044 -0.19067,0.02934 -0.34467,0.09534 -0.462,0.198 -0.11734,0.08801 -0.21267,0.220007 -0.286,0.396 -0.0587,0.176006 -0.11734,0.403339 -0.176,0.682 l -0.484,2.288 c -0.0733,0.36667 -0.11,0.608669 -0.11,0.726 0,0.249336 0.0807,0.410669 0.242,0.484 0.176,0.07334 0.52066,0.11 1.034,0.11 l 4.62,0 -0.484,2.288"
       style="font-size:22px;fill:#ffffff"
       id="path3662"
       inkscape:connector-curvature="0"
       sodipodi:nodetypes="cscccsccccccccccccccscscc" /><path
       d="m 290.39779,71.41626 -2.684,0 1.254,-5.896 c 0.0733,-0.366661 0.10999,-0.60866 0.11,-0.726 -10e-6,-0.249327 -0.088,-0.41066 -0.264,-0.484 -0.16134,-0.07333 -0.49868,-0.109993 -1.012,-0.11 l -2.156,0 c -0.33734,7e-6 -0.60867,0.01467 -0.814,0.044 -0.19067,0.02934 -0.34467,0.09534 -0.462,0.198 -0.11734,0.08801 -0.21267,0.220007 -0.286,0.396 -0.0587,0.176006 -0.11734,0.403339 -0.176,0.682 l -1.254,5.896 -2.706,0 2.706,-12.694 2.706,0 -0.924,4.378 c 0.49866,-0.791991 1.17333,-1.187991 2.024,-1.188 l 2.838,0 c 1.01199,0 1.71599,0.102676 2.112,0.308 0.39599,0.190675 0.59399,0.586675 0.594,1.188 -10e-6,0.337341 -0.0513,0.73334 -0.154,1.188 l -1.452,6.82"
       style="font-size:22px;fill:#ffffff"
       id="path3664"
       inkscape:connector-curvature="0"
       sodipodi:nodetypes="cccccccccccccccccscccc" /><path
       d="m 303.14885,68.73226 c -0.13201,0.572002 -0.27867,1.034001 -0.44,1.386 -0.16134,0.337334 -0.38134,0.608667 -0.66,0.814 -0.26401,0.190667 -0.60867,0.322667 -1.034,0.396 -0.41067,0.05867 -0.93134,0.088 -1.562,0.088 l -7.326,0 0.484,-2.288 6.996,0 c 0.32266,0 0.57933,-0.07333 0.77,-0.22 0.20533,-0.161331 0.30799,-0.337331 0.308,-0.528 -10e-6,-0.366663 -0.26401,-0.55 -0.792,-0.55 l -4.004,0 c -0.836,0 -1.474,-0.168663 -1.914,-0.506 -0.42533,-0.337329 -0.638,-0.791995 -0.638,-1.364 0,-0.07333 0,-0.139328 0,-0.198 0.0147,-0.07333 0.0293,-0.146661 0.044,-0.22 l 0.198,-0.946 c 0.132,-0.571993 0.27867,-1.033992 0.44,-1.386 0.176,-0.366658 0.396,-0.645325 0.66,-0.836 0.27867,-0.190658 0.62333,-0.315324 1.034,-0.374 0.42533,-0.07332 0.946,-0.109991 1.562,-0.11 l 7.326,0 -0.484,2.288 -6.842,0 c -0.33734,7e-6 -0.616,0.08801 -0.836,0.264 -0.20533,0.16134 -0.308,0.344673 -0.308,0.55 0,0.366672 0.286,0.550006 0.858,0.55 l 4.224,0 c 1.40799,0 2.11199,0.660005 2.112,1.98 -1e-5,0.249337 -0.022,0.491337 -0.066,0.726 l -0.11,0.484"
       style="font-size:22px;fill:#ffffff"
       id="path3666"
       inkscape:connector-curvature="0"
       sodipodi:nodetypes="ccccsccsccsscscccccccccccscsccc" /><path
       d="m 313.64423,73.50626 c -0.11735,0.571997 -0.26401,1.026663 -0.44,1.364 -0.16134,0.351996 -0.38134,0.623329 -0.66,0.814 -0.26401,0.205329 -0.60868,0.337328 -1.034,0.396 -0.42534,0.07333 -0.95334,0.11 -1.584,0.11 l -6.556,0 0.484,-2.266 5.544,0 c 0.32266,0 0.58666,-0.01467 0.792,-0.044 0.20532,-0.02934 0.36666,-0.09534 0.484,-0.198 0.11732,-0.102669 0.20532,-0.242002 0.264,-0.418 0.0733,-0.161335 0.13932,-0.388668 0.198,-0.682 l 0.242,-1.188 -4.268,0 c -1.012,0 -1.716,-0.09533 -2.112,-0.286 -0.396,-0.205333 -0.594,-0.601333 -0.594,-1.188 0,-0.337332 0.0513,-0.740665 0.154,-1.21 l 1.452,-6.82 2.684,0 -1.254,5.918 c -0.0587,0.293336 -0.088,0.528003 -0.088,0.704 -1e-5,0.249336 0.0807,0.418002 0.242,0.506 0.17599,0.07334 0.52066,0.11 1.034,0.11 l 3.234,0 1.54,-7.238 2.706,0 -2.464,11.616"
       style="font-size:22px;fill:#ffffff"
       id="path3668"
       inkscape:connector-curvature="0"
       sodipodi:nodetypes="ccccsccscccccscsccccccscccc" /><path
       d="m 326.49154,71.41626 -2.684,0 1.254,-5.896 c 0.0733,-0.366661 0.10999,-0.60866 0.11,-0.726 -10e-6,-0.249327 -0.088,-0.41066 -0.264,-0.484 -0.16134,-0.07333 -0.49868,-0.109993 -1.012,-0.11 l -2.156,0 c -0.33734,7e-6 -0.60867,0.01467 -0.814,0.044 -0.19067,0.02934 -0.34467,0.09534 -0.462,0.198 -0.11734,0.08801 -0.21267,0.220007 -0.286,0.396 -0.0587,0.176006 -0.11734,0.403339 -0.176,0.682 l -1.254,5.896 -2.706,0 2.024,-9.504 2.706,0 -0.242,1.188 c 0.49866,-0.791991 1.17333,-1.187991 2.024,-1.188 l 2.838,0 c 1.01199,0 1.71599,0.102676 2.112,0.308 0.39599,0.190675 0.59399,0.586675 0.594,1.188 -10e-6,0.337341 -0.0513,0.73334 -0.154,1.188 l -1.452,6.82"
       style="font-size:22px;fill:#ffffff"
       id="path3670"
       inkscape:connector-curvature="0"
       sodipodi:nodetypes="cccccccccccccccccscccc" /><path
       d="m 333.5886,71.41626 -2.178,0 c -1.012,0 -1.716,-0.09533 -2.112,-0.286 -0.396,-0.205333 -0.594,-0.608666 -0.594,-1.21 0,-0.337332 0.0513,-0.733331 0.154,-1.188 l 2.112,-9.966 2.706,0 -0.682,3.146 2.618,0 -0.506,2.288 -2.574,0 -0.77,3.608 c -0.0733,0.36667 -0.11,0.608669 -0.11,0.726 0,0.249336 0.0807,0.410669 0.242,0.484 0.176,0.07334 0.52067,0.11 1.034,0.11 l 1.144,0 -0.484,2.288"
       style="font-size:22px;fill:#ffffff"
       id="path3672"
       inkscape:connector-curvature="0"
       sodipodi:nodetypes="cscsccccccccscscc" /><path
       d="m 345.78451,71.41626 -2.684,0 1.254,-5.896 c 0.0733,-0.366661 0.10999,-0.60866 0.11,-0.726 -1e-5,-0.249327 -0.088,-0.41066 -0.264,-0.484 -0.16134,-0.07333 -0.49868,-0.109993 -1.012,-0.11 l -2.156,0 c -0.33734,7e-6 -0.60867,0.01467 -0.814,0.044 -0.19067,0.02934 -0.34467,0.09534 -0.462,0.198 -0.11734,0.08801 -0.21267,0.220007 -0.286,0.396 -0.0587,0.176006 -0.11734,0.403339 -0.176,0.682 l -1.254,5.896 -2.706,0 2.706,-12.694 2.706,0 -0.924,4.378 c 0.49866,-0.791991 1.17333,-1.187991 2.024,-1.188 l 2.838,0 c 1.01199,0 1.71599,0.102676 2.112,0.308 0.39599,0.190675 0.59399,0.586675 0.594,1.188 -1e-5,0.337341 -0.0514,0.73334 -0.154,1.188 l -1.452,6.82"
       style="font-size:22px;fill:#ffffff"
       id="path3674"
       inkscape:connector-curvature="0"
       sodipodi:nodetypes="cccccccccccccccccscccc" /></g><g
     style="font-style:normal;font-variant:normal;font-weight:normal;font-stretch:normal;font-size:21.89388275px;line-height:125%;font-family:'Hemi Head 426';-inkscape-font-specification:'Hemi Head 426';text-align:start;letter-spacing:0px;word-spacing:0px;text-anchor:start;fill:#ffffff;fill-opacity:1;stroke:none"
     id="text3596"
     transform="translate(20,12)"><path
       d="m 364.6112,30.73226 c -0.11735,0.572002 -0.26401,1.034001 -0.44,1.386 -0.16135,0.337334 -0.38135,0.608667 -0.66,0.814 -0.26401,0.190667 -0.60868,0.322667 -1.034,0.396 -0.41068,0.05867 -0.93134,0.088 -1.562,0.088 l -6.974,0 2.684,-12.672 2.706,0 -2.2,10.384 3.234,0 c 0.30799,0 0.55732,-0.0073 0.748,-0.022 0.20532,-0.02933 0.36666,-0.088 0.484,-0.176 0.13199,-0.088 0.22732,-0.219998 0.286,-0.396 0.0733,-0.175997 0.14666,-0.417997 0.22,-0.726 l 0.484,-2.288 c 0.0733,-0.366661 0.10999,-0.60866 0.11,-0.726 -1e-5,-0.249327 -0.088,-0.41066 -0.264,-0.484 -0.16135,-0.07333 -0.49868,-0.109993 -1.012,-0.11 l -2.288,0 0.484,-2.288 3.322,0 c 1.01199,0 1.71599,0.102676 2.112,0.308 0.39598,0.190675 0.59398,0.586675 0.594,1.188 -2e-5,0.337341 -0.0514,0.73334 -0.154,1.188 l -0.88,4.136"
       style="font-size:22px;fill:#ffffff"
       id="path3649"
       inkscape:connector-curvature="0"
       sodipodi:nodetypes="ccccsccccsccccccccccscccc" /><path
       d="m 376.36367,30.71026 c -0.11735,0.572002 -0.26402,1.034001 -0.44,1.386 -0.17601,0.352001 -0.40335,0.623334 -0.682,0.814 -0.27868,0.190667 -0.63068,0.322667 -1.056,0.396 -0.41068,0.05867 -0.92401,0.088 -1.54,0.088 l -3.3,0 0.484,-2.266 2.266,0 c 0.35199,0 0.63065,-0.01467 0.836,-0.044 0.20532,-0.044 0.35932,-0.109998 0.462,-0.198 0.11732,-0.102664 0.20532,-0.234664 0.264,-0.396 0.0587,-0.175997 0.11732,-0.40333 0.176,-0.682 l 0.506,-2.31 c 0.0587,-0.293327 0.088,-0.527994 0.088,-0.704 -10e-6,-0.249327 -0.088,-0.41066 -0.264,-0.484 -0.16135,-0.08799 -0.49868,-0.131993 -1.012,-0.132 l -3.234,0 -2.2,10.384 -2.706,0 2.684,-12.672 6.974,0 c 1.01199,0 1.71598,0.102676 2.112,0.308 0.39598,0.205342 0.59398,0.601342 0.594,1.188 -2e-5,0.337341 -0.0514,0.740674 -0.154,1.21 l -0.858,4.114"
       style="font-size:22px;fill:#ffffff"
       id="path3651"
       inkscape:connector-curvature="0"
       sodipodi:nodetypes="ccccsccsccccccccccccscccc" /><path
       d="m 393.48723,33.41626 -2.684,0 1.254,-5.896 c 0.0587,-0.293327 0.088,-0.535327 0.088,-0.726 -2e-5,-0.249327 -0.088,-0.41066 -0.264,-0.484 -0.16135,-0.07333 -0.49868,-0.109993 -1.012,-0.11 l -1.056,0 c -0.33735,7e-6 -0.60868,0.01467 -0.814,0.044 -0.19068,0.02934 -0.34468,0.09534 -0.462,0.198 -0.11735,0.08801 -0.21268,0.220007 -0.286,0.396 -0.0587,0.176006 -0.11735,0.403339 -0.176,0.682 l -1.254,5.896 -2.706,0 1.386,-6.622 c -1e-5,-0.249327 -0.088,-0.41066 -0.264,-0.484 -0.16134,-0.07333 -0.49868,-0.109993 -1.012,-0.11 l -1.056,0 c -0.33734,7e-6 -0.60867,0.01467 -0.814,0.044 -0.19067,0.02934 -0.34467,0.09534 -0.462,0.198 -0.11734,0.08801 -0.21267,0.220007 -0.286,0.396 -0.0587,0.176006 -0.11734,0.403339 -0.176,0.682 l -1.254,5.896 -2.706,0 2.024,-9.504 2.706,0 -0.242,1.188 c 0.49866,-0.791991 1.17333,-1.187991 2.024,-1.188 l 1.738,0 c 0.96799,0 1.63532,0.08068 2.002,0.242 0.38132,0.161342 0.60865,0.454675 0.682,0.88 0.14665,-0.337325 0.43265,-0.608658 0.858,-0.814 0.42532,-0.205324 0.87998,-0.307991 1.364,-0.308 l 1.738,0 c 1.01198,0 1.71598,0.102676 2.112,0.308 0.41065,0.190675 0.61598,0.586675 0.616,1.188 -2e-5,0.278674 -0.0587,0.674674 -0.176,1.188 l -1.43,6.82"
       style="font-size:22px;fill:#ffffff"
       id="path3653"
       inkscape:connector-curvature="0"
       sodipodi:nodetypes="cccccccccccccccccccccccccccsccscscccc" /></g><g
     style="font-style:normal;font-weight:normal;font-size:19.10863495px;line-height:125%;font-family:sans-serif;letter-spacing:0px;word-spacing:0px;fill:#ffffff;fill-opacity:1;stroke:none;stroke-width:1px;stroke-linecap:butt;stroke-linejoin:miter;stroke-opacity:1"
     id="text4219"><path
       d="m 216.14384,34.442894 0.45861,-2.216602 6.63069,0 c 0.20383,0 0.33759,-0.03185 0.40129,-0.09554 0.0764,-0.06369 0.13376,-0.184715 0.17197,-0.363064 l 0.2102,-0.955432 c 0.0127,-0.03822 0.0191,-0.08918 0.0191,-0.152869 0,-0.165608 -0.12739,-0.248412 -0.38218,-0.248412 l -5.17844,0 c -0.43313,0 -0.7516,-0.0828 -0.95543,-0.248412 -0.19109,-0.178347 -0.28663,-0.414021 -0.28663,-0.70702 0,-0.127391 0.0191,-0.267521 0.0573,-0.42039 l 0.53504,-2.579665 c 0.11465,-0.573259 0.33122,-0.993649 0.64969,-1.26117 0.31848,-0.28026 0.81531,-0.42039 1.49048,-0.42039 l 7.98741,0 -0.45861,2.159275 -6.59248,0 c -0.20383,0 -0.35033,0.03822 -0.4395,0.114652 -0.0892,0.07644 -0.15287,0.210195 -0.19108,0.401282 l -0.17198,0.802562 c -0.0127,0.03822 -0.0191,0.09555 -0.0191,0.171978 0,0.203825 0.13376,0.305738 0.40128,0.305738 l 5.23577,0 c 0.44587,0 0.76434,0.08917 0.95543,0.267521 0.20383,0.178347 0.30574,0.414021 0.30574,0.70702 0,0.06369 -0.006,0.127389 -0.0191,0.191086 0,0.06369 -0.006,0.127389 -0.0191,0.191086 l -0.57326,2.675209 c -0.12739,0.573259 -0.35033,1.000019 -0.6688,1.280279 -0.31848,0.267521 -0.8153,0.401281 -1.49047,0.401281 l -8.06385,0 z"
       style="font-style:italic;font-variant:normal;font-weight:normal;font-stretch:normal;font-family:'Hemi Head';-inkscape-font-specification:'Hemi Head Italic';fill:#ffffff;fill-opacity:1"
       id="path4237"
       inkscape:connector-curvature="0"
       sodipodi:nodetypes="ccscccssscscccsccssccssscsccccscc" /><path
       d="m 227.30508,38.493925 0.49682,-2.312145 6.4205,0 c 0.21657,0 0.36307,-0.03822 0.4395,-0.114652 0.0892,-0.07644 0.15924,-0.222934 0.21019,-0.439499 l 0.26753,-1.184735 -5.50329,0 c -0.53504,0 -0.92358,-0.08917 -1.16563,-0.267521 -0.2293,-0.191086 -0.34395,-0.484085 -0.34395,-0.878997 0,-0.178347 0.0318,-0.42676 0.0955,-0.745237 l 1.64334,-7.777214 2.67521,0 -1.47136,6.936434 c -0.0127,0.05096 -0.0255,0.09555 -0.0382,0.133761 l 0,0.114651 c 0,0.203826 0.15287,0.305739 0.45861,0.305739 l 4.10835,0 1.58602,-7.490585 2.69432,0 -2.52234,11.828245 c -0.14013,0.649693 -0.37581,1.127409 -0.70702,1.433147 -0.33122,0.305739 -0.84715,0.458608 -1.5478,0.458608 l -7.79632,0 z"
       style="font-style:italic;font-variant:normal;font-weight:normal;font-stretch:normal;font-family:'Hemi Head';-inkscape-font-specification:'Hemi Head Italic';fill:#ffffff;fill-opacity:1"
       id="path4239"
       inkscape:connector-curvature="0"
       sodipodi:nodetypes="ccscccscscccccssccccsscc" /><path
       d="m 247.37631,34.442894 1.43314,-6.821783 c 0.0255,-0.127391 0.0382,-0.203825 0.0382,-0.229303 0,-0.203825 -0.15924,-0.305738 -0.47771,-0.305738 l -3.99371,0 c -0.19109,0 -0.33122,0.03822 -0.42039,0.114651 -0.0892,0.06369 -0.15924,0.203823 -0.21019,0.42039 l -1.43315,6.821783 -2.67521,0 2.04462,-9.668969 2.57967,0 -0.2293,1.050975 c 0.45861,-0.70065 1.08919,-1.050975 1.89175,-1.050975 l 4.33766,0 c 0.5223,0 0.8981,0.08917 1.12741,0.267521 0.24204,0.178347 0.36306,0.477715 0.36306,0.898105 0,0.242043 -0.0255,0.484086 -0.0764,0.726129 l -1.64334,7.777214 z"
       style="font-style:italic;font-variant:normal;font-weight:normal;font-stretch:normal;font-family:'Hemi Head';-inkscape-font-specification:'Hemi Head Italic';fill:#ffffff;fill-opacity:1"
       id="path4241"
       inkscape:connector-curvature="0"
       sodipodi:nodetypes="ccssscccccccsscsccc" /><path
       d="m 253.80517,34.442894 c -0.53504,0 -0.92358,-0.08917 -1.16563,-0.267521 -0.2293,-0.191086 -0.34395,-0.484085 -0.34395,-0.878997 0,-0.178347 0.0318,-0.42676 0.0955,-0.745237 l 1.24206,-5.885459 c 0.14013,-0.649694 0.36944,-1.12741 0.68791,-1.433148 0.33122,-0.305738 0.84079,-0.458607 1.5287,-0.458607 l 6.82178,0 -0.49683,2.350362 -5.44596,0 c -0.21656,0 -0.36306,0.03185 -0.4395,0.09554 -0.0764,0.06369 -0.14013,0.203823 -0.19108,0.42039 l -0.82167,3.859944 c -0.0127,0.05096 -0.0255,0.09555 -0.0382,0.133761 l 0,0.114651 c 0,0.191087 0.1465,0.28663 0.4395,0.28663 l 5.44596,0 -0.49683,2.407688 -6.82178,0 z"
       style="font-style:italic;font-variant:normal;font-weight:normal;font-stretch:normal;font-family:'Hemi Head';-inkscape-font-specification:'Hemi Head Italic';fill:#ffffff;fill-opacity:1"
       id="path4243"
       inkscape:connector-curvature="0"
       sodipodi:nodetypes="ccscccsccsccccsscccc" /></g><path
     d="m 196.61371,31.564735 c -0.11735,0.572003 -0.26402,1.034002 -0.44,1.386 -0.17602,0.352001 -0.40335,0.623334 -0.682,0.814 -0.27868,0.190667 -0.63068,0.322667 -1.056,0.396 -0.41068,0.05867 -0.92401,0.088 -1.54,0.088 l -3.3,0 0.484,-2.266 2.266,0 c 0.35199,0 0.63065,-0.01466 0.836,-0.044 0.20532,-0.044 0.35932,-0.109997 0.462,-0.198 0.11732,-0.102664 0.20532,-0.234663 0.264,-0.396 0.0587,-0.175996 0.11732,-0.40333 0.176,-0.682 l 0.506,-2.31 c 0.0587,-0.293327 0.088,-0.527993 0.088,-0.704 -1e-5,-0.249326 -0.088,-0.410659 -0.264,-0.484 -0.16135,-0.08799 -0.49868,-0.131992 -1.012,-0.132 l -3.234,0 -2.2,10.384 -2.706,0 2.684,-12.672 6.974,0 c 1.01198,0 1.71598,0.102677 2.112,0.308 0.39598,0.205343 0.59398,0.601342 0.594,1.188 -2e-5,0.337341 -0.0513,0.740674 -0.154,1.21 l -0.858,4.114"
     style="font-style:normal;font-variant:normal;font-weight:normal;font-stretch:normal;font-size:22px;line-height:125%;font-family:'Hemi Head 426';-inkscape-font-specification:'Hemi Head 426';text-align:start;letter-spacing:0px;word-spacing:0px;text-anchor:start;fill:#ffffff;fill-opacity:1;stroke:none"
     id="path3699-4"
     inkscape:connector-curvature="0"
     sodipodi:nodetypes="ccccsccsccccccccccccscccc" /><path
     d="m 208.8293,31.653264 c -0.11734,0.572002 -0.26401,1.034001 -0.44,1.386 -0.16134,0.337334 -0.38135,0.608667 -0.66001,0.814 -0.264,0.190667 -0.60867,0.322667 -1.03399,0.396 -0.42535,0.05867 -0.95335,0.088 -1.58401,0.088 l -4.18,0 c -1.012,0 -1.716,-0.09533 -2.112,-0.286 -0.396,-0.205333 -0.594,-0.608666 -0.594,-1.21 0,-0.337332 0.0513,-0.733331 0.154,-1.188 l 0.88,-4.136 c 0.132,-0.571993 0.27867,-1.033992 0.44,-1.386 0.176,-0.351992 0.396,-0.623325 0.66,-0.814 0.27867,-0.190658 0.62334,-0.315324 1.034,-0.374 0.42533,-0.07332 0.94601,-0.109991 1.562,-0.11 l 4.18001,0 c 0.54266,9e-6 0.98998,0.02934 1.34199,0.088 0.35199,0.04401 0.63066,0.124676 0.836,0.242 0.20532,0.102676 0.34466,0.256675 0.41801,0.462 0.088,0.190675 0.13198,0.425341 0.132,0.704 -1e-5,0.337341 -0.0513,0.73334 -0.154,1.188 l -0.88,4.136 m -2.486,-0.924 0.484,-2.288 c 0.0733,-0.366661 0.10998,-0.60866 0.11,-0.726 -1e-5,-0.249327 -0.088,-0.41066 -0.264,-0.484 -0.16134,-0.07333 -0.49867,-0.109993 -1.012,-0.11 l -2.156,0 c -0.308,7e-6 -0.56467,0.01467 -0.77,0.044 -0.19067,0.01467 -0.352,0.06601 -0.484,0.154 -0.11734,0.08801 -0.21267,0.220007 -0.286,0.396 -0.0733,0.176006 -0.13933,0.418006 -0.198,0.726 l -0.484,2.288 c -0.0733,0.36667 -0.11,0.608669 -0.11,0.726 0,0.249336 0.0807,0.410669 0.242,0.484 0.176,0.07334 0.52067,0.11 1.034,0.11 l 2.156,0 c 0.33733,0 0.60133,-0.01466 0.792,-0.044 0.20533,-0.02933 0.36666,-0.088 0.484,-0.176 0.11733,-0.102664 0.20533,-0.234664 0.264,-0.396 0.0733,-0.175997 0.13933,-0.410664 0.198,-0.704"
     style="font-style:normal;font-variant:normal;font-weight:normal;font-stretch:normal;font-size:22px;line-height:125%;font-family:'Hemi Head 426';-inkscape-font-specification:'Hemi Head 426';text-align:start;letter-spacing:0px;word-spacing:0px;text-anchor:start;fill:#ffffff;fill-opacity:1;stroke:none"
     id="path3658-1"
     inkscape:connector-curvature="0"
     sodipodi:nodetypes="ccccsscsccccccccccccccccccccccccscsscccc" /></svg>