<?xml version="1.0" encoding="UTF-8" standalone="no"?>
<!-- Generator: Adobe Illustrator 13.0.0, SVG Export Plug-In . SVG Version: 6.00 Build 14948)  -->

<svg
   xmlns:dc="http://purl.org/dc/elements/1.1/"
   xmlns:cc="http://creativecommons.org/ns#"
   xmlns:rdf="http://www.w3.org/1999/02/22-rdf-syntax-ns#"
   xmlns:svg="http://www.w3.org/2000/svg"
   xmlns="http://www.w3.org/2000/svg"
   xmlns:xlink="http://www.w3.org/1999/xlink"
   xmlns:sodipodi="http://sodipodi.sourceforge.net/DTD/sodipodi-0.dtd"
   xmlns:inkscape="http://www.inkscape.org/namespaces/inkscape"
   textFont="hemihead"
   textAntialias="true"
   textColor="#ffffff"
   version="1.1"
   id="Layer_1"
   x="0px"
   y="0px"
   width="800"
   height="480"
   viewBox="0 0 800 480"
   enable-background="new 0 0 500 500"
   xml:space="preserve"
   inkscape:version="0.91 r13725"
   sodipodi:docname="splash.svg"><metadata
     id="metadata8156"><rdf:RDF><cc:Work
         rdf:about=""><dc:format>image/svg+xml</dc:format><dc:type
           rdf:resource="http://purl.org/dc/dcmitype/StillImage" /><dc:title></dc:title></cc:Work></rdf:RDF></metadata><defs
     id="defs8154"><linearGradient
       id="linearGradient3829"><stop
         style="stop-color:#0036ff;stop-opacity:1;"
         offset="0"
         id="stop3831" /><stop
         style="stop-color:#000000;stop-opacity:1;"
         offset="1"
         id="stop3833" /></linearGradient><linearGradient
       inkscape:collect="always"
       xlink:href="#linearGradient3829"
       id="linearGradient3835"
       x1="131.5"
       y1="222.5"
       x2="210.5"
       y2="276.5"
       gradientUnits="userSpaceOnUse" /><linearGradient
       gradientTransform="matrix(0.62827903,0,0,0.62827903,92.822952,22.225755)"
       id="SVGID_16_"
       gradientUnits="userSpaceOnUse"
       x1="234.2803"
       y1="358.45901"
       x2="239.1073"
       y2="491.66159"><stop
         offset="0"
         style="stop-color:#ECEFCB"
         id="stop182" /><stop
         offset="1"
         style="stop-color:#B7BA91"
         id="stop184" /></linearGradient><linearGradient
       id="SVGID_15_"
       gradientUnits="userSpaceOnUse"
       x1="209.4111"
       y1="493.68851"
       x2="245.3712"
       y2="206.0153"><stop
         offset="0"
         style="stop-color:#E5802A"
         id="stop165" /><stop
         offset="1"
         style="stop-color:#EBD300"
         id="stop167" /></linearGradient><radialGradient
       id="SVGID_14_"
       cx="234.89751"
       cy="141.2471"
       r="14.0725"
       gradientTransform="matrix(0.76656324,0.05937237,-0.05937237,0.76656324,73.19118,-25.293375)"
       gradientUnits="userSpaceOnUse"><stop
         offset="0.0121"
         style="stop-color:#FFFFFF"
         id="stop140" /><stop
         offset="1"
         style="stop-color:#C3C3C3"
         id="stop142" /></radialGradient><linearGradient
       id="SVGID_13_"
       gradientUnits="userSpaceOnUse"
       x1="247.0732"
       y1="160.957"
       x2="252.0761"
       y2="139.6413"
       gradientTransform="matrix(0.62758792,0.02946629,-0.02946629,0.62758792,101.82845,15.024044)"><stop
         offset="0"
         style="stop-color:#2E2B22"
         id="stop129" /><stop
         offset="1"
         style="stop-color:#5C636A"
         id="stop131" /></linearGradient><linearGradient
       id="SVGID_12_"
       gradientUnits="userSpaceOnUse"
       x1="245.5479"
       y1="162.3564"
       x2="248.2691"
       y2="134.64571"
       gradientTransform="matrix(0.62639419,0.04850314,-0.04850314,0.62639419,104.75711,10.760354)"><stop
         offset="0"
         style="stop-color:#E5802A"
         id="stop120" /><stop
         offset="1"
         style="stop-color:#EBD300"
         id="stop122" /></linearGradient><radialGradient
       id="SVGID_11_"
       cx="270.31451"
       cy="149.873"
       r="15.2679"
       gradientTransform="matrix(1.2151,0.1452,-0.1452,1.2151,-21.514,-87.9268)"
       gradientUnits="userSpaceOnUse"><stop
         offset="0.0121"
         style="stop-color:#FFFFFF"
         id="stop107" /><stop
         offset="1"
         style="stop-color:#C3C3C3"
         id="stop109" /></radialGradient><linearGradient
       id="SVGID_10_"
       gradientUnits="userSpaceOnUse"
       x1="243.02251"
       y1="175.77541"
       x2="245.8082"
       y2="150.0024"
       gradientTransform="matrix(0.62639419,0.04850314,-0.04850314,0.62639419,104.75711,10.760354)"><stop
         offset="0"
         style="stop-color:#FFFFFF"
         id="stop98" /><stop
         offset="1"
         style="stop-color:#C3C3C3"
         id="stop100" /></linearGradient><linearGradient
       id="SVGID_9_"
       gradientUnits="userSpaceOnUse"
       x1="236.62601"
       y1="230.0264"
       x2="242.2308"
       y2="166.0127"
       gradientTransform="matrix(0.62639419,0.04850314,-0.04850314,0.62639419,104.75711,10.760354)"><stop
         offset="0"
         style="stop-color:#E5802A"
         id="stop87" /><stop
         offset="1"
         style="stop-color:#EBD300"
         id="stop89" /></linearGradient><linearGradient
       id="SVGID_8_"
       gradientUnits="userSpaceOnUse"
       x1="240.2197"
       y1="276.25201"
       x2="240.2197"
       y2="127.5594"
       gradientTransform="matrix(0.62639419,0.04850314,-0.04850314,0.62639419,104.75711,10.760354)"><stop
         offset="0"
         style="stop-color:#E5802A"
         id="stop80" /><stop
         offset="1"
         style="stop-color:#EBD300"
         id="stop82" /></linearGradient><linearGradient
       gradientTransform="matrix(0.62827903,0,0,0.62827903,92.822952,22.225755)"
       id="SVGID_7_"
       gradientUnits="userSpaceOnUse"
       x1="232.99899"
       y1="422.90039"
       x2="232.99899"
       y2="127.0979"><stop
         offset="0"
         style="stop-color:#E5802A"
         id="stop63" /><stop
         offset="1"
         style="stop-color:#EBD300"
         id="stop65" /></linearGradient><linearGradient
       id="SVGID_6_"
       gradientUnits="userSpaceOnUse"
       x1="404.5"
       y1="265.7305"
       x2="401.81091"
       y2="226.11189"
       gradientTransform="matrix(-0.6077343,-0.15933156,-0.15933156,0.6077343,438.78863,67.038196)"><stop
         offset="0"
         style="stop-color:#E5802A"
         id="stop54" /><stop
         offset="1"
         style="stop-color:#EBD300"
         id="stop56" /></linearGradient><linearGradient
       id="SVGID_5_"
       gradientUnits="userSpaceOnUse"
       x1="374.94531"
       y1="280.082"
       x2="368.97961"
       y2="192.1873"
       gradientTransform="matrix(-0.6077343,-0.15933156,-0.15933156,0.6077343,438.78863,67.038196)"><stop
         offset="0"
         style="stop-color:#E5802A"
         id="stop47" /><stop
         offset="1"
         style="stop-color:#EBD300"
         id="stop49" /></linearGradient><linearGradient
       id="SVGID_4_"
       gradientUnits="userSpaceOnUse"
       x1="391.02051"
       y1="266.43259"
       x2="388.33151"
       y2="226.8148"
       gradientTransform="matrix(0.62639419,0.04850314,-0.04850314,0.62639419,104.75711,10.760354)"><stop
         offset="0"
         style="stop-color:#E5802A"
         id="stop38" /><stop
         offset="1"
         style="stop-color:#EBD300"
         id="stop40" /></linearGradient><linearGradient
       id="SVGID_3_"
       gradientUnits="userSpaceOnUse"
       x1="361.46481"
       y1="280.78519"
       x2="355.49921"
       y2="192.8913"
       gradientTransform="matrix(0.62639419,0.04850314,-0.04850314,0.62639419,104.75711,10.760354)"><stop
         offset="0"
         style="stop-color:#E5802A"
         id="stop31" /><stop
         offset="1"
         style="stop-color:#EBD300"
         id="stop33" /></linearGradient><linearGradient
       id="SVGID_2_"
       gradientUnits="userSpaceOnUse"
       x1="102.3818"
       y1="438.63959"
       x2="102.3818"
       y2="377.16479"
       gradientTransform="matrix(-0.54641427,0.3100557,0.3100557,0.54641427,258.73794,16.304037)"><stop
         offset="0"
         style="stop-color:#E5802A"
         id="stop24" /><stop
         offset="1"
         style="stop-color:#EBD300"
         id="stop26" /></linearGradient><linearGradient
       id="SVGID_1_"
       gradientUnits="userSpaceOnUse"
       x1="130.4951"
       y1="457.78421"
       x2="130.4951"
       y2="396.31049"><stop
         offset="0"
         style="stop-color:#E5802A"
         id="stop17" /><stop
         offset="1"
         style="stop-color:#EBD300"
         id="stop19" /></linearGradient><linearGradient
       gradientTransform="matrix(0.62827903,0,0,0.62827903,92.822952,22.225755)"
       y2="396.31049"
       x2="130.4951"
       y1="457.78421"
       x1="130.4951"
       gradientUnits="userSpaceOnUse"
       id="linearGradient4039"
       xlink:href="#SVGID_1_"
       inkscape:collect="always" /><path
       inkscape:connector-curvature="0"
       style="fill:none;stroke:none"
       d="M 484.28572,539.50503 C 570,556.64789 610,558.07646 691.42857,539.50503"
       id="path1919"
       sodipodi:nodetypes="cz" /><path
       inkscape:connector-curvature="0"
       sodipodi:nodetypes="cz"
       id="path3824"
       d="m 627.14286,407.36218 c 43.66861,12.29715 92.48881,11.17486 135,2.85714"
       style="fill:none;stroke:none" /><path
       inkscape:connector-curvature="0"
       style="fill:none;stroke:none"
       d="m 567.85715,286.64789 c 67.32143,6.60714 124.82143,8.39285 169.28571,0.71428"
       id="path3818"
       sodipodi:nodetypes="cz" /></defs><sodipodi:namedview
     pagecolor="#ffffff"
     bordercolor="#666666"
     borderopacity="1"
     objecttolerance="10"
     gridtolerance="10"
     guidetolerance="10"
     inkscape:pageopacity="0"
     inkscape:pageshadow="2"
     inkscape:window-width="1920"
     inkscape:window-height="1080"
     id="namedview8152"
     showgrid="false"
     inkscape:zoom="0.5"
     inkscape:cx="419.6058"
     inkscape:cy="198.21364"
     inkscape:window-x="0"
     inkscape:window-y="0"
     inkscape:window-maximized="1"
     inkscape:current-layer="Layer_1"
     borderlayer="true"
     inkscape:showpageshadow="false" /><g
     id="max_width__x2F__height"
     display="none"
     style="display:none"
     transform="translate(0,-20)"><path
       display="inline"
       d="m 499.001,1 0,498 L 1,499 1,1 499.001,1 m 1,-1 L 0,0 l 0,500 500.001,0 0,-500 0,0 z"
       id="path8137"
       inkscape:connector-curvature="0"
       style="display:inline" /></g><path
     inkscape:connector-curvature="0"
     id="path4730"
     d="m 271.3872,161.69232 c 3.04497,9.96964 4.59606,13.68228 5.90501,14.13423 0.97642,0.33712 7.36571,2.04443 14.1984,3.79378 6.83269,1.74948 12.51871,3.56338 12.6357,4.03108 0.11693,0.46757 -1.50874,5.19369 -3.61256,10.50247 -2.10382,5.30871 -3.72541,10.05109 -3.60351,10.53857 0.1219,0.48741 5.60163,1.47646 12.17719,2.19778 32.17617,3.52964 28.69303,2.52771 38.14879,10.97368 4.64861,4.15216 8.61725,7.27399 8.81921,6.9373 0.20189,-0.33667 -1.07696,-4.9245 -2.84199,-10.19525 l -3.20916,-9.58315 -15.01809,-5.40063 -15.01815,-5.40062 2.46072,-3.57371 c 1.35335,-1.9656 4.44169,-6.36633 6.86293,-9.77948 l 4.40226,-6.20578 -15.96044,-4.35634 -15.96038,-4.35627 -3.90816,-17.15004 -3.90809,-17.14999 -3.59419,1.50421 c -1.97675,0.82728 -8.36802,3.3375 -14.2028,5.57823 -10.41782,4.00071 -10.5933,4.12222 -9.75556,6.75633 0.46929,1.47531 2.71155,8.7669 4.98287,16.2036 z"
     style="fill:#ff0000;fill-opacity:1;stroke:#1a1a1a;stroke-width:19.13668442;stroke-miterlimit:4;stroke-dasharray:none;stroke-opacity:1" /><path
     style="fill:#1a1a1a"
     d="m 314.51899,392.57637 c -4.07535,-1.64671 -8.3864,-7.73377 -8.3864,-11.84154 0,-4.05685 1.99354,-6.91919 14.91507,-21.4158 l 9.14249,-10.25675 -3.66659,-10.09192 c -4.84011,-13.32163 -6.08113,-35.75964 -2.70019,-48.82011 8.52482,-32.93091 36.49589,-57.39378 70.88611,-61.99507 9.27013,-1.24037 12.80894,-1.11918 22.58224,0.773 11.08792,2.14668 25.00566,7.83672 34.23572,13.99663 l 4.26666,2.84734 0,-3.13815 c 0,-2.46666 -1.7787,-4.17869 -8.31158,-8.00029 -8.41727,-4.92387 -21.71446,-10.12451 -25.88683,-10.12451 -2.98315,0 -3.5022,-1.60857 -4.50088,-13.94752 -0.69109,-8.53898 -0.42356,-11.13532 1.53635,-14.90837 3.40824,-6.56133 9.35255,-10.01933 19.0426,-11.07759 16.48,-1.79987 18.12034,-2.24441 18.12034,-4.91143 0,-1.37453 -0.90792,-2.84747 -2.01778,-3.27333 -2.78911,-1.07025 -5.85914,-7.41311 -5.85914,-12.10555 0,-2.24779 1.39187,-5.55703 3.28207,-7.80337 4.15661,-4.93993 4.28585,-7.40142 0.32819,-6.25169 -27.39805,7.96029 -63.56294,15.88988 -78.74452,17.26556 -21.20249,1.92133 -21.3839,-2.70178 -0.49742,-12.67907 13.13726,-6.27543 52.35682,-20.96061 60.95123,-22.8221 5.16869,-1.11956 6.24322,-3.21235 4.38574,-8.54108 l -1.3735,-3.93948 7.47517,-2.16277 c 4.11126,-1.18941 8.17749,-2.42723 9.03603,-2.75057 0.94197,-0.35487 1.912,1.28336 2.4463,4.13116 0.48696,2.59544 1.26136,4.94797 1.72115,5.22775 0.4596,0.27991 7.3342,-1.2033 15.27676,-3.2961 34.73435,-9.1518 71.51104,-14.72944 74.91985,-11.36246 4.33351,4.2801 -28.78673,20.02213 -67.04294,31.8657 -8.66464,2.6824 -15.94947,5.05343 -16.18842,5.26903 -0.68778,0.62042 2.50486,6.17707 5.88096,10.23552 3.56758,4.28884 4.0844,11.92662 1.07598,15.90405 -1.0601,1.40157 -1.9275,3.89763 -1.9275,5.54664 0,2.54767 0.54259,2.90411 3.61026,2.37136 9.50704,-1.65086 35.66331,-4.55811 40.97113,-4.55377 7.2875,0.0134 13.55413,3.55643 16.56949,9.3873 3.02475,5.84945 7.37376,40.2692 5.78706,45.80194 -1.714,5.97626 -4.69882,10.10295 -8.85798,12.24664 -1.97879,1.01993 -13.64101,3.10219 -25.91585,4.6272 -34.43806,4.27864 -32.16411,3.70856 -32.16411,8.06375 0,2.06638 1.81301,6.44357 4.02891,9.72679 13.23352,19.60839 16.74083,49.03149 8.45905,70.96201 -1.90869,5.05437 -3.73223,10.07591 -4.05232,11.15898 -0.33662,1.13927 3.61096,6.67239 9.36606,13.12821 12.58212,14.11388 14.45682,17.97962 11.8016,24.33441 -2.22521,5.32574 -9.22178,9.03871 -14.52436,7.70769 -1.83024,-0.45935 -7.42873,-5.54384 -12.67308,-11.50933 -5.16697,-5.87764 -9.75308,-10.83799 -10.19131,-11.02298 -0.43817,-0.18499 -4.03503,2.11798 -7.99282,5.11778 -29.42315,22.30114 -69.51815,22.13147 -99.38349,-0.4205 l -8.16696,-6.16711 -9.55272,11.06222 c -5.42748,6.28514 -11.19796,11.63582 -13.36238,12.39025 -4.39142,1.53094 -4.47186,1.53125 -8.1595,0.0421 z"
     id="path4724"
     inkscape:connector-curvature="0"
     sodipodi:nodetypes="csscssssccsssssssssscsscccccccscsccssccccssscscssssssscsccc" /><circle
     style="opacity:1;fill:#ff0000;fill-opacity:1;stroke:#000000;stroke-width:1.27577901;stroke-linecap:round;stroke-linejoin:round;stroke-miterlimit:4;stroke-dasharray:none;stroke-dashoffset:0;stroke-opacity:1"
     id="circle4726"
     cx="403.16623"
     cy="310.81741"
     r="69.712204" /><path
     style="fill:#ff0000;fill-opacity:1"
     d="m 271.3872,161.69232 c 3.04497,9.96964 4.59606,13.68228 5.90501,14.13423 0.97642,0.33712 7.36571,2.04443 14.1984,3.79378 6.83269,1.74948 12.51871,3.56338 12.6357,4.03108 0.11693,0.46757 -1.50874,5.19369 -3.61256,10.50247 -2.10382,5.30871 -3.72541,10.05109 -3.60351,10.53857 0.1219,0.48741 5.60163,1.47646 12.17719,2.19778 32.17617,3.52964 28.69303,2.52771 38.14879,10.97368 4.64861,4.15216 8.61725,7.27399 8.81921,6.9373 0.20189,-0.33667 -1.07696,-4.9245 -2.84199,-10.19525 l -3.20916,-9.58315 -15.01809,-5.40063 -15.01815,-5.40062 2.46072,-3.57371 c 1.35335,-1.9656 4.44169,-6.36633 6.86293,-9.77948 l 4.40226,-6.20578 -15.96044,-4.35634 -15.96038,-4.35627 -3.90816,-17.15004 -3.90809,-17.14999 -3.59419,1.50421 c -1.97675,0.82728 -8.36802,3.3375 -14.2028,5.57823 -10.41782,4.00071 -10.5933,4.12222 -9.75556,6.75633 0.46929,1.47531 2.71155,8.7669 4.98287,16.2036 z"
     id="path4728"
     inkscape:connector-curvature="0" /></svg>