<?xml version="1.0" encoding="UTF-8" standalone="no"?>
<!-- Generator: Adobe Illustrator 13.0.0, SVG Export Plug-In . SVG Version: 6.00 Build 14948)  -->

<svg
   xmlns:dc="http://purl.org/dc/elements/1.1/"
   xmlns:cc="http://creativecommons.org/ns#"
   xmlns:rdf="http://www.w3.org/1999/02/22-rdf-syntax-ns#"
   xmlns:svg="http://www.w3.org/2000/svg"
   xmlns="http://www.w3.org/2000/svg"
   xmlns:xlink="http://www.w3.org/1999/xlink"
   xmlns:sodipodi="http://sodipodi.sourceforge.net/DTD/sodipodi-0.dtd"
   xmlns:inkscape="http://www.inkscape.org/namespaces/inkscape"
   textFont="hemihead"
   textAntialias="true"
   textColor="#ffffff"
   version="1.1"
   id="Layer_1"
   x="0px"
   y="0px"
   width="800"
   height="480"
   viewBox="0 0 800 480"
   enable-background="new 0 0 500 500"
   xml:space="preserve"
   inkscape:version="0.91 r13725"
   sodipodi:docname="splash.svg"><metadata
     id="metadata8156"><rdf:RDF><cc:Work
         rdf:about=""><dc:format>image/svg+xml</dc:format><dc:type
           rdf:resource="http://purl.org/dc/dcmitype/StillImage" /><dc:title /></cc:Work></rdf:RDF></metadata><defs
     id="defs8154"><linearGradient
       id="linearGradient3829"><stop
         style="stop-color:#0036ff;stop-opacity:1;"
         offset="0"
         id="stop3831" /><stop
         style="stop-color:#000000;stop-opacity:1;"
         offset="1"
         id="stop3833" /></linearGradient><linearGradient
       inkscape:collect="always"
       xlink:href="#linearGradient3829"
       id="linearGradient3835"
       x1="131.5"
       y1="222.5"
       x2="210.5"
       y2="276.5"
       gradientUnits="userSpaceOnUse" /><linearGradient
       gradientTransform="matrix(0.62827903,0,0,0.62827903,92.822952,22.225755)"
       id="SVGID_16_"
       gradientUnits="userSpaceOnUse"
       x1="234.2803"
       y1="358.45901"
       x2="239.1073"
       y2="491.66159"><stop
         offset="0"
         style="stop-color:#ECEFCB"
         id="stop182" /><stop
         offset="1"
         style="stop-color:#B7BA91"
         id="stop184" /></linearGradient><linearGradient
       id="SVGID_15_"
       gradientUnits="userSpaceOnUse"
       x1="209.4111"
       y1="493.68851"
       x2="245.3712"
       y2="206.0153"><stop
         offset="0"
         style="stop-color:#E5802A"
         id="stop165" /><stop
         offset="1"
         style="stop-color:#EBD300"
         id="stop167" /></linearGradient><radialGradient
       id="SVGID_14_"
       cx="234.89751"
       cy="141.2471"
       r="14.0725"
       gradientTransform="matrix(0.76656324,0.05937237,-0.05937237,0.76656324,73.19118,-25.293375)"
       gradientUnits="userSpaceOnUse"><stop
         offset="0.0121"
         style="stop-color:#FFFFFF"
         id="stop140" /><stop
         offset="1"
         style="stop-color:#C3C3C3"
         id="stop142" /></radialGradient><linearGradient
       id="SVGID_13_"
       gradientUnits="userSpaceOnUse"
       x1="247.0732"
       y1="160.957"
       x2="252.0761"
       y2="139.6413"
       gradientTransform="matrix(0.62758792,0.02946629,-0.02946629,0.62758792,101.82845,15.024044)"><stop
         offset="0"
         style="stop-color:#2E2B22"
         id="stop129" /><stop
         offset="1"
         style="stop-color:#5C636A"
         id="stop131" /></linearGradient><linearGradient
       id="SVGID_12_"
       gradientUnits="userSpaceOnUse"
       x1="245.5479"
       y1="162.3564"
       x2="248.2691"
       y2="134.64571"
       gradientTransform="matrix(0.62639419,0.04850314,-0.04850314,0.62639419,104.75711,10.760354)"><stop
         offset="0"
         style="stop-color:#E5802A"
         id="stop120" /><stop
         offset="1"
         style="stop-color:#EBD300"
         id="stop122" /></linearGradient><radialGradient
       id="SVGID_11_"
       cx="270.31451"
       cy="149.873"
       r="15.2679"
       gradientTransform="matrix(1.2151,0.1452,-0.1452,1.2151,-21.514,-87.9268)"
       gradientUnits="userSpaceOnUse"><stop
         offset="0.0121"
         style="stop-color:#FFFFFF"
         id="stop107" /><stop
         offset="1"
         style="stop-color:#C3C3C3"
         id="stop109" /></radialGradient><linearGradient
       id="SVGID_10_"
       gradientUnits="userSpaceOnUse"
       x1="243.02251"
       y1="175.77541"
       x2="245.8082"
       y2="150.0024"
       gradientTransform="matrix(0.62639419,0.04850314,-0.04850314,0.62639419,104.75711,10.760354)"><stop
         offset="0"
         style="stop-color:#FFFFFF"
         id="stop98" /><stop
         offset="1"
         style="stop-color:#C3C3C3"
         id="stop100" /></linearGradient><linearGradient
       id="SVGID_9_"
       gradientUnits="userSpaceOnUse"
       x1="236.62601"
       y1="230.0264"
       x2="242.2308"
       y2="166.0127"
       gradientTransform="matrix(0.62639419,0.04850314,-0.04850314,0.62639419,104.75711,10.760354)"><stop
         offset="0"
         style="stop-color:#E5802A"
         id="stop87" /><stop
         offset="1"
         style="stop-color:#EBD300"
         id="stop89" /></linearGradient><linearGradient
       id="SVGID_8_"
       gradientUnits="userSpaceOnUse"
       x1="240.2197"
       y1="276.25201"
       x2="240.2197"
       y2="127.5594"
       gradientTransform="matrix(0.62639419,0.04850314,-0.04850314,0.62639419,104.75711,10.760354)"><stop
         offset="0"
         style="stop-color:#E5802A"
         id="stop80" /><stop
         offset="1"
         style="stop-color:#EBD300"
         id="stop82" /></linearGradient><linearGradient
       gradientTransform="matrix(0.62827903,0,0,0.62827903,92.822952,22.225755)"
       id="SVGID_7_"
       gradientUnits="userSpaceOnUse"
       x1="232.99899"
       y1="422.90039"
       x2="232.99899"
       y2="127.0979"><stop
         offset="0"
         style="stop-color:#E5802A"
         id="stop63" /><stop
         offset="1"
         style="stop-color:#EBD300"
         id="stop65" /></linearGradient><linearGradient
       id="SVGID_6_"
       gradientUnits="userSpaceOnUse"
       x1="404.5"
       y1="265.7305"
       x2="401.81091"
       y2="226.11189"
       gradientTransform="matrix(-0.6077343,-0.15933156,-0.15933156,0.6077343,438.78863,67.038196)"><stop
         offset="0"
         style="stop-color:#E5802A"
         id="stop54" /><stop
         offset="1"
         style="stop-color:#EBD300"
         id="stop56" /></linearGradient><linearGradient
       id="SVGID_5_"
       gradientUnits="userSpaceOnUse"
       x1="374.94531"
       y1="280.082"
       x2="368.97961"
       y2="192.1873"
       gradientTransform="matrix(-0.6077343,-0.15933156,-0.15933156,0.6077343,438.78863,67.038196)"><stop
         offset="0"
         style="stop-color:#E5802A"
         id="stop47" /><stop
         offset="1"
         style="stop-color:#EBD300"
         id="stop49" /></linearGradient><linearGradient
       id="SVGID_4_"
       gradientUnits="userSpaceOnUse"
       x1="391.02051"
       y1="266.43259"
       x2="388.33151"
       y2="226.8148"
       gradientTransform="matrix(0.62639419,0.04850314,-0.04850314,0.62639419,104.75711,10.760354)"><stop
         offset="0"
         style="stop-color:#E5802A"
         id="stop38" /><stop
         offset="1"
         style="stop-color:#EBD300"
         id="stop40" /></linearGradient><linearGradient
       id="SVGID_3_"
       gradientUnits="userSpaceOnUse"
       x1="361.46481"
       y1="280.78519"
       x2="355.49921"
       y2="192.8913"
       gradientTransform="matrix(0.62639419,0.04850314,-0.04850314,0.62639419,104.75711,10.760354)"><stop
         offset="0"
         style="stop-color:#E5802A"
         id="stop31" /><stop
         offset="1"
         style="stop-color:#EBD300"
         id="stop33" /></linearGradient><linearGradient
       id="SVGID_2_"
       gradientUnits="userSpaceOnUse"
       x1="102.3818"
       y1="438.63959"
       x2="102.3818"
       y2="377.16479"
       gradientTransform="matrix(-0.54641427,0.3100557,0.3100557,0.54641427,258.73794,16.304037)"><stop
         offset="0"
         style="stop-color:#E5802A"
         id="stop24" /><stop
         offset="1"
         style="stop-color:#EBD300"
         id="stop26" /></linearGradient><linearGradient
       id="SVGID_1_"
       gradientUnits="userSpaceOnUse"
       x1="130.4951"
       y1="457.78421"
       x2="130.4951"
       y2="396.31049"><stop
         offset="0"
         style="stop-color:#E5802A"
         id="stop17" /><stop
         offset="1"
         style="stop-color:#EBD300"
         id="stop19" /></linearGradient><linearGradient
       gradientTransform="matrix(0.62827903,0,0,0.62827903,92.822952,22.225755)"
       y2="396.31049"
       x2="130.4951"
       y1="457.78421"
       x1="130.4951"
       gradientUnits="userSpaceOnUse"
       id="linearGradient4039"
       xlink:href="#SVGID_1_"
       inkscape:collect="always" /><path
       inkscape:connector-curvature="0"
       style="fill:none;stroke:none"
       d="M 484.28572,539.50503 C 570,556.64789 610,558.07646 691.42857,539.50503"
       id="path1919"
       sodipodi:nodetypes="cz" /><path
       inkscape:connector-curvature="0"
       sodipodi:nodetypes="cz"
       id="path3824"
       d="m 627.14286,407.36218 c 43.66861,12.29715 92.48881,11.17486 135,2.85714"
       style="fill:none;stroke:none" /><path
       inkscape:connector-curvature="0"
       style="fill:none;stroke:none"
       d="m 567.85715,286.64789 c 67.32143,6.60714 124.82143,8.39285 169.28571,0.71428"
       id="path3818"
       sodipodi:nodetypes="cz" /></defs><sodipodi:namedview
     pagecolor="#ffffff"
     bordercolor="#666666"
     borderopacity="1"
     objecttolerance="10"
     gridtolerance="10"
     guidetolerance="10"
     inkscape:pageopacity="0"
     inkscape:pageshadow="2"
     inkscape:window-width="1920"
     inkscape:window-height="1080"
     id="namedview8152"
     showgrid="false"
     inkscape:zoom="1.4142136"
     inkscape:cx="450.86225"
     inkscape:cy="263.85436"
     inkscape:window-x="0"
     inkscape:window-y="0"
     inkscape:window-maximized="1"
     inkscape:current-layer="Layer_1"
     borderlayer="true"
     inkscape:showpageshadow="false" /><path
     style="fill:#1a1a1a;fill-opacity:1;stroke:none"
     d="m 0,0 800,0 0,480 -800,0 z"
     id="rect3292"
     inkscape:connector-curvature="0" /><g
     id="max_width__x2F__height"
     display="none"
     style="display:none"
     transform="translate(0,-20)"><path
       display="inline"
       d="m 499.001,1 0,498 L 1,499 1,1 499.001,1 m 1,-1 L 0,0 l 0,500 500.001,0 0,-500 0,0 z"
       id="path8137"
       inkscape:connector-curvature="0"
       style="display:inline" /></g><path
     style="opacity:1;fill:#ff0000;fill-opacity:1;stroke:none;stroke-width:32;stroke-linecap:round;stroke-linejoin:round;stroke-miterlimit:4;stroke-dasharray:none;stroke-dashoffset:0;stroke-opacity:1"
     d="m 392.92951,219.82633 c 0,8.83655 -7.16344,16 -16,16 -8.83655,0 -16,-7.16345 -16,-16 0,-8.83656 7.16345,-16 16,-16 8.83656,0 16,7.16344 16,16 z"
     id="path7663"
     inkscape:connector-curvature="0"
     sodipodi:nodetypes="sssss" /><path
     inkscape:export-ydpi="90"
     inkscape:export-xdpi="90"
     inkscape:export-filename="../res/drawable/icon.png"
     id="path7679"
     d="m 358.05455,267.82634 13.74998,0 c 1.7313,0 3.12501,1.39376 3.12501,3.125 l 0,13.75 c 0,1.73125 -1.39371,3.125 -3.12501,3.125 l -13.74998,0 c -1.7313,0 -3.12501,-1.39375 -3.12501,-3.125 l 0,-13.75 c 0,-1.73124 1.39371,-3.125 3.12501,-3.125 z"
     style="fill:#ff0000;fill-opacity:1;stroke:none"
     inkscape:connector-curvature="0"
     sodipodi:nodetypes="sssssssss" /><path
     inkscape:connector-curvature="0"
     style="fill:#ff0000;fill-opacity:1;stroke:none"
     d="m 382.05455,267.82634 13.74998,0 c 1.7313,0 3.12501,1.39376 3.12501,3.125 l 0,13.75 c 0,1.73125 -1.39371,3.125 -3.12501,3.125 l -13.74998,0 c -1.7313,0 -3.12501,-1.39375 -3.12501,-3.125 l 0,-13.75 c 0,-1.73124 1.39371,-3.125 3.12501,-3.125 z"
     id="path7681"
     inkscape:export-filename="../res/drawable/icon.png"
     inkscape:export-xdpi="90"
     inkscape:export-ydpi="90"
     sodipodi:nodetypes="sssssssss" /><path
     inkscape:export-ydpi="90"
     inkscape:export-xdpi="90"
     inkscape:export-filename="../res/drawable/icon.png"
     id="path7683"
     d="m 406.05455,267.82634 13.74998,0 c 1.7313,0 3.12501,1.39376 3.12501,3.125 l 0,13.75 c 0,1.73125 -1.39371,3.125 -3.12501,3.125 l -13.74998,0 c -1.7313,0 -3.12501,-1.39375 -3.12501,-3.125 l 0,-13.75 c 0,-1.73124 1.39371,-3.125 3.12501,-3.125 z"
     style="fill:#ff0000;fill-opacity:1;stroke:none"
     inkscape:connector-curvature="0"
     sodipodi:nodetypes="sssssssss" /><path
     inkscape:connector-curvature="0"
     style="fill:#ff0000;fill-opacity:1;stroke:none"
     d="m 430.05455,267.82634 13.74998,0 c 1.7313,0 3.12501,1.39376 3.12501,3.125 l 0,13.75 c 0,1.73125 -1.39371,3.125 -3.12501,3.125 l -13.74998,0 c -1.7313,0 -3.12501,-1.39375 -3.12501,-3.125 l 0,-13.75 c 0,-1.73124 1.39371,-3.125 3.12501,-3.125 z"
     id="path7685"
     inkscape:export-filename="../res/drawable/icon.png"
     inkscape:export-xdpi="90"
     inkscape:export-ydpi="90"
     sodipodi:nodetypes="sssssssss" /><path
     inkscape:connector-curvature="0"
     style="fill:#ff0000;fill-opacity:1;stroke:none"
     d="m 358.05455,243.82634 13.74998,0 c 1.7313,0 3.12501,1.39376 3.12501,3.125 l 0,13.75001 c 0,1.73124 -1.39371,3.12499 -3.12501,3.12499 l -13.74998,0 c -1.7313,0 -3.12501,-1.39375 -3.12501,-3.12499 l 0,-13.75001 c 0,-1.73124 1.39371,-3.125 3.12501,-3.125 z"
     id="path7687"
     inkscape:export-filename="../res/drawable/icon.png"
     inkscape:export-xdpi="90"
     inkscape:export-ydpi="90"
     sodipodi:nodetypes="sssssssss" /><path
     inkscape:export-ydpi="90"
     inkscape:export-xdpi="90"
     inkscape:export-filename="../res/drawable/icon.png"
     id="path7689"
     d="m 382.05455,243.82634 13.74998,0 c 1.7313,0 3.12501,1.39376 3.12501,3.125 l 0,13.75 c 0,1.73125 -1.39371,3.125 -3.12501,3.125 l -13.74998,0 c -1.7313,0 -3.12501,-1.39375 -3.12501,-3.125 l 0,-13.75 c 0,-1.73124 1.39371,-3.125 3.12501,-3.125 z"
     style="fill:#ff0000;fill-opacity:1;stroke:none"
     inkscape:connector-curvature="0"
     sodipodi:nodetypes="sssssssss" /><path
     inkscape:connector-curvature="0"
     style="fill:#ff0000;fill-opacity:1;stroke:none"
     d="m 406.05455,243.82634 13.74998,0 c 1.7313,0 3.12501,1.39376 3.12501,3.125 l 0,13.75 c 0,1.73125 -1.39371,3.125 -3.12501,3.125 l -13.74998,0 c -1.7313,0 -3.12501,-1.39375 -3.12501,-3.125 l 0,-13.75 c 0,-1.73124 1.39371,-3.125 3.12501,-3.125 z"
     id="path7691"
     inkscape:export-filename="../res/drawable/icon.png"
     inkscape:export-xdpi="90"
     inkscape:export-ydpi="90"
     sodipodi:nodetypes="sssssssss" /><path
     inkscape:export-ydpi="90"
     inkscape:export-xdpi="90"
     inkscape:export-filename="../res/drawable/icon.png"
     id="path7693"
     d="m 430.05455,243.82634 13.74998,0 c 1.7313,0 3.12501,1.39376 3.12501,3.125 l 0,13.75 c 0,1.73125 -1.39371,3.125 -3.12501,3.125 l -13.74998,0 c -1.7313,0 -3.12501,-1.39375 -3.12501,-3.125 l 0,-13.75 c 0,-1.73124 1.39371,-3.125 3.12501,-3.125 z"
     style="fill:#ff0000;fill-opacity:1;stroke:none"
     inkscape:connector-curvature="0"
     sodipodi:nodetypes="sssssssss" /><path
     style="opacity:1;fill:#ff0000;fill-opacity:1;stroke:none;stroke-width:32;stroke-linecap:round;stroke-linejoin:round;stroke-miterlimit:4;stroke-dasharray:none;stroke-dashoffset:0;stroke-opacity:1"
     d="m 440.92951,219.82633 c 0,8.83655 -7.16344,16 -16,16 -8.83655,0 -16,-7.16345 -16,-16 0,-8.83656 7.16345,-16 16,-16 8.83656,0 16,7.16344 16,16 z"
     id="circle7695"
     inkscape:connector-curvature="0"
     sodipodi:nodetypes="sssss" /></svg>